<?xml version="1.0" encoding="UTF-8"?>
<svg id="Layer_1" data-name="Layer 1" xmlns="http://www.w3.org/2000/svg" xmlns:xlink="http://www.w3.org/1999/xlink" viewBox="0 0 112.1 48">
  <defs>
    <style>
      .cls-1 {
        fill: #2171cd;
      }

      .cls-2 {
        fill: url(#linear-gradient);
        stroke: #4a90e2;
        stroke-width: 2px;
      }

      .cls-3 {
        fill: #fff;
      }
    </style>
    <linearGradient id="linear-gradient" x1="-775.98" y1="14.93" x2="-774.98" y2="15.93" gradientTransform="translate(35697 -685) scale(46)" gradientUnits="userSpaceOnUse">
      <stop offset="0" stop-color="#4a90e2"/>
      <stop offset=".99" stop-color="#2171cd"/>
    </linearGradient>
  </defs>
  <circle class="cls-2" cx="24" cy="24" r="23"/>
  <g>
    <circle class="cls-3" cx="18" cy="39.5" r="1.5"/>
    <circle class="cls-3" cx="24" cy="39.5" r="1.5"/>
    <circle class="cls-3" cx="30" cy="39.5" r="1.5"/>
  </g>
  <g>
    <path class="cls-3" d="M11.44,23.47c1.78,0,2.03-1.06,2.03-2.01,0-.76-.1-1.52-.2-2.28-.1-.76-.2-1.49-.2-2.25,0-2.5,1.5-3.56,3.63-3.56h.53v1.49h-.45c-1.48,0-1.98.87-1.98,2.34,0,.62.08,1.28.17,1.93.1.68.18,1.33.18,2.06.02,1.74-.68,2.61-1.8,2.93v.05c1.13.3,1.83,1.22,1.8,2.96,0,.73-.08,1.41-.18,2.06-.1.68-.17,1.3-.17,1.96,0,1.52.58,2.36,1.98,2.36h.45v1.49h-.53c-2.08,0-3.63-.98-3.63-3.72,0-.73.1-1.49.2-2.23.1-.73.2-1.47.2-2.2,0-.84-.25-2.01-2.03-2.01v-1.39Z"/>
    <path class="cls-3" d="M19.34,29.57v-12.15c0-1.14.42-1.49,1.78-1.49s1.78.35,1.78,1.49v5.23c.72-.48,1.51-.66,2.29-.64,2.06.06,4.01,1.72,4.01,5.11,0,5.59-5.19,5.94-8.46,4.37-1.15-.56-1.39-1.04-1.39-1.92ZM24.25,24.94c-.38,0-.82.17-1.35.5v3.72c1.24.46,2.84.29,2.83-2.01-.02-1.28-.5-2.21-1.47-2.21Z"/>
    <path class="cls-3" d="M36.56,24.86c-1.78,0-2.03,1.17-2.03,2.01,0,.73.1,1.47.2,2.2.1.73.2,1.49.2,2.23,0,2.74-1.58,3.72-3.63,3.72h-.53v-1.49h.43c1.4-.03,2-.84,2-2.36,0-.65-.1-1.28-.18-1.96-.1-.65-.2-1.33-.2-2.06,0-1.74.7-2.66,1.8-2.96v-.05c-1.1-.33-1.8-1.19-1.8-2.93,0-.73.1-1.39.2-2.06.08-.65.18-1.3.18-1.93,0-1.47-.53-2.31-1.98-2.34h-.45v-1.49h.5c2.13,0,3.66,1.06,3.66,3.56,0,.76-.1,1.49-.2,2.25-.1.76-.2,1.52-.2,2.28,0,.95.25,2.01,2.03,2.01v1.39Z"/>
  </g>
  <g>
    <path class="cls-1" d="M52.84,23.97c0-1.91.05-3.18.16-3.83.12-.64.29-1.17.53-1.56.38-.75,1-1.42,1.85-2.01.83-.6,1.87-.9,3.12-.92,1.26.01,2.31.32,3.15.92.83.59,1.44,1.27,1.81,2.02.27.4.45.92.55,1.56.09.64.14,1.92.14,3.82s-.05,3.14-.14,3.8c-.1.66-.29,1.19-.55,1.58-.37.76-.97,1.42-1.81,2-.84.6-1.89.91-3.15.94-1.25-.03-2.29-.34-3.12-.94-.85-.58-1.46-1.24-1.85-2-.12-.25-.22-.48-.31-.71-.09-.23-.16-.52-.22-.88-.11-.66-.16-1.92-.16-3.8ZM55.24,23.97c0,1.61.06,2.71.17,3.28.1.57.31,1.03.62,1.38.25.34.59.61,1,.82.41.25.89.37,1.46.37s1.07-.12,1.49-.37c.4-.21.72-.48.96-.82.31-.35.53-.81.64-1.38.11-.57.16-1.66.16-3.28s-.05-2.71-.16-3.3c-.12-.56-.33-1.01-.64-1.36-.24-.34-.56-.62-.96-.84-.42-.22-.92-.33-1.49-.35-.57.01-1.05.13-1.46.35-.41.23-.75.51-1,.84-.31.35-.52.81-.62,1.36-.12.58-.17,1.68-.17,3.3Z"/>
    <path class="cls-1" d="M67.2,20.5h2.27v1.24h.04c.75-.92,1.72-1.38,2.93-1.38.93,0,1.79.34,2.56,1.02.77.69,1.17,1.7,1.21,3.03v7.75h-2.27v-6.95c0-.82-.21-1.44-.63-1.87-.41-.43-.95-.65-1.6-.65s-1.19.22-1.61.65c-.43.43-.64,1.05-.64,1.87v6.95h-2.27v-11.66Z"/>
    <path class="cls-1" d="M79.56,15.79h2.27v13.38c0,.53.28.8.85.8h.79v2.2h-1.01c-.83,0-1.51-.21-2.04-.64-.57-.43-.85-1.16-.85-2.18v-13.56Z"/>
    <path class="cls-1" d="M85.55,15.79h2.27v2.33h-2.27v-2.33ZM85.55,20.5h2.27v11.66h-2.27v-11.66Z"/>
    <path class="cls-1" d="M91,20.5h2.27v1.24h.04c.75-.92,1.72-1.38,2.93-1.38.93,0,1.79.34,2.56,1.02.77.69,1.17,1.7,1.21,3.03v7.75h-2.27v-6.95c0-.82-.21-1.44-.63-1.87-.41-.43-.95-.65-1.6-.65s-1.19.22-1.61.65c-.43.43-.64,1.05-.64,1.87v6.95h-2.27v-11.66Z"/>
    <path class="cls-1" d="M105.06,27.22c0,.94.26,1.65.78,2.14.49.49,1.12.74,1.92.74.92,0,1.75-.38,2.47-1.13l1.64,1.45c-1.15,1.27-2.51,1.9-4.07,1.89-.59,0-1.17-.09-1.74-.27-.28-.1-.56-.23-.83-.39-.28-.14-.55-.32-.79-.53-.48-.43-.87-1.04-1.16-1.82-.33-.75-.49-1.72-.49-2.92s.14-2.11.42-2.88c.28-.78.65-1.39,1.09-1.84.45-.46.95-.79,1.51-.99.55-.2,1.09-.3,1.63-.3,1.29.01,2.38.45,3.27,1.31.91.88,1.37,2.08,1.38,3.62v1.93h-7.04ZM109.83,25.29c-.03-.91-.27-1.6-.71-2.07-.44-.44-1-.67-1.68-.67s-1.24.22-1.68.67c-.43.47-.67,1.16-.71,2.07h4.77Z"/>
  </g>
</svg>