<?xml version="1.0" standalone="no"?>
<!DOCTYPE svg PUBLIC "-//W3C//DTD SVG 20010904//EN"
 "http://www.w3.org/TR/2001/REC-SVG-20010904/DTD/svg10.dtd">
<svg version="1.0" xmlns="http://www.w3.org/2000/svg"
 width="688.000000pt" height="128.000000pt" viewBox="0 0 688.000000 128.000000"
 preserveAspectRatio="xMidYMid meet">

<g transform="translate(0.000000,128.000000) scale(0.100000,-0.100000)"
fill="#000000" stroke="none">
<path d="M1763 447 c-22 -10 -23 -16 -23 -119 l0 -108 58 0 c53 0 60 2 70 25
11 25 11 25 -33 25 l-44 0 -3 94 c-3 92 -3 93 -25 83z"/>
<path d="M3305 448 c-29 -16 -35 -28 -34 -68 0 -19 -3 -52 -7 -73 -5 -29 -2
-43 11 -57 23 -25 72 -34 109 -20 17 6 33 7 40 1 6 -5 21 -5 35 0 22 9 22 11
8 27 -13 14 -14 24 -4 59 6 23 8 45 5 48 -10 10 -37 -7 -44 -27 -6 -19 -7 -19
-32 5 -15 14 -36 27 -47 29 -11 2 -21 11 -23 21 -5 24 28 34 43 13 14 -18 45
-12 45 10 0 17 -39 44 -65 44 -11 0 -29 -6 -40 -12z m52 -140 c30 -28 29 -38
-6 -38 -37 0 -59 24 -41 45 16 20 19 19 47 -7z"/>
<path d="M3618 430 c-29 -29 -30 -34 -26 -97 4 -57 8 -69 32 -89 38 -33 80
-31 117 5 45 46 32 71 -19 35 -12 -8 -35 -14 -50 -12 -26 3 -27 5 -27 68 0 65
0 65 30 68 18 2 33 -2 41 -12 13 -18 44 -11 44 9 0 22 -50 55 -82 55 -20 0
-40 -10 -60 -30z"/>
<path d="M4944 446 c-8 -21 3 -36 27 -36 15 0 20 6 17 22 -4 27 -35 37 -44 14z"/>
<path d="M5083 447 c-15 -6 -23 -19 -23 -34 0 -13 -6 -23 -14 -23 -8 0 -17 -7
-20 -16 -9 -23 -8 -24 14 -24 18 0 20 -7 20 -65 l0 -65 25 12 c22 10 25 17 25
65 0 39 4 53 14 53 8 0 17 7 20 16 9 23 8 24 -13 24 -15 0 -21 8 -23 34 -3 30
-5 32 -25 23z"/>
<path d="M5455 435 c-14 -13 -25 -30 -25 -37 0 -27 32 -58 71 -68 33 -9 40
-15 37 -33 -4 -28 -47 -36 -64 -12 -8 11 -20 15 -33 10 -24 -7 -25 -14 -8 -36
50 -65 157 -37 157 41 0 30 -37 70 -66 70 -29 0 -48 16 -41 34 8 20 33 21 45
1 10 -18 42 -10 42 11 0 18 -40 44 -68 44 -12 0 -34 -11 -47 -25z"/>
<path d="M6104 446 c-8 -21 3 -36 27 -36 15 0 20 6 17 22 -4 27 -35 37 -44 14z"/>
<path d="M1927 370 c-4 -17 0 -20 24 -20 16 0 29 -4 29 -10 0 -5 -13 -10 -28
-10 -57 0 -83 -66 -37 -96 23 -15 79 -15 104 0 6 4 11 34 11 66 0 49 -4 61
-22 74 -32 23 -74 21 -81 -4z m58 -90 c0 -18 -33 -26 -47 -12 -6 6 -7 15 -3
22 10 16 50 8 50 -10z"/>
<path d="M2102 374 c-19 -13 -22 -24 -22 -84 l0 -70 25 12 c22 10 25 17 25 65
0 50 1 53 25 53 24 0 25 -2 25 -65 l0 -65 25 12 c22 10 25 17 25 65 0 40 -5
58 -20 73 -24 24 -77 26 -108 4z"/>
<path d="M2281 364 c-43 -55 -10 -144 54 -144 15 0 24 -4 20 -10 -3 -5 -17
-10 -30 -10 -19 0 -35 -16 -35 -36 0 -2 18 -4 40 -4 64 0 80 24 80 118 0 91
-13 112 -73 112 -27 0 -41 -7 -56 -26z m87 -50 c3 -34 -18 -60 -43 -50 -9 3
-15 18 -15 39 0 40 7 49 35 45 14 -2 21 -12 23 -34z"/>
<path d="M2473 383 c-19 -7 -17 -127 1 -142 8 -7 30 -15 49 -18 29 -4 40 -1
61 20 22 22 26 35 26 88 0 52 -2 60 -16 55 -9 -3 -20 -6 -25 -6 -5 0 -9 -25
-9 -55 0 -40 -4 -57 -15 -61 -28 -11 -45 16 -45 72 0 53 -3 57 -27 47z"/>
<path d="M2670 370 c-10 -18 -8 -20 20 -20 16 0 30 -4 30 -10 0 -5 -13 -10
-28 -10 -57 0 -83 -66 -38 -95 23 -15 82 -15 107 1 5 3 9 32 9 64 0 49 -4 61
-22 74 -31 22 -65 20 -78 -4z m55 -90 c0 -18 -33 -26 -47 -12 -6 6 -7 15 -3
22 10 16 50 8 50 -10z"/>
<path d="M2830 370 c-29 -29 -27 -94 5 -125 13 -14 36 -25 50 -25 15 0 24 -4
20 -10 -3 -5 -17 -10 -30 -10 -19 0 -35 -16 -35 -36 0 -13 71 -1 94 17 24 19
26 26 26 99 0 70 -2 81 -22 94 -31 22 -84 20 -108 -4z m78 -62 c-2 -35 -7 -43
-23 -43 -16 0 -21 8 -23 43 -3 39 -2 42 23 42 25 0 26 -3 23 -42z"/>
<path d="M3022 374 c-18 -12 -22 -25 -22 -64 0 -53 15 -76 58 -87 33 -8 76 16
80 45 4 23 3 23 -28 7 -18 -9 -39 -13 -48 -10 -13 5 -5 13 31 31 51 26 60 49
29 77 -23 21 -71 22 -100 1z m78 -32 c0 -5 -11 -14 -25 -20 -22 -10 -25 -9
-25 8 0 15 7 20 25 20 14 0 25 -4 25 -8z"/>
<path d="M3810 370 c-29 -29 -27 -94 5 -125 26 -27 54 -31 88 -14 32 17 37 28
37 81 0 37 -5 50 -22 62 -31 22 -84 20 -108 -4z m78 -62 c-2 -35 -7 -43 -23
-43 -16 0 -21 8 -23 43 -3 39 -2 42 23 42 25 0 26 -3 23 -42z"/>
<path d="M3999 369 c-15 -15 -19 -33 -19 -84 l0 -65 25 12 c22 10 25 17 25 65
0 50 1 53 25 53 24 0 25 -2 25 -65 l0 -65 25 12 c20 9 25 19 27 62 3 47 5 51
28 51 23 0 25 -4 28 -58 3 -49 6 -58 20 -55 25 5 30 113 7 138 -25 28 -188 27
-216 -1z"/>
<path d="M4289 369 c-15 -15 -19 -34 -19 -84 l0 -65 25 12 c22 10 25 17 25 65
0 50 1 53 25 53 24 0 25 -3 25 -60 0 -41 4 -60 13 -60 26 0 36 17 39 65 3 46
5 50 28 50 23 0 25 -4 28 -58 3 -49 6 -58 20 -55 25 5 30 113 7 138 -25 27
-189 26 -216 -1z"/>
<path d="M4578 379 c-13 -7 -18 -23 -18 -60 0 -40 5 -55 26 -76 21 -21 32 -24
61 -20 55 9 63 21 63 99 0 60 -2 69 -16 64 -9 -3 -18 -6 -20 -6 -2 0 -4 -22
-4 -49 0 -51 -18 -78 -45 -67 -11 4 -15 21 -15 66 0 62 -3 66 -32 49z"/>
<path d="M4771 364 c-16 -20 -21 -41 -21 -85 0 -59 0 -59 25 -47 20 9 25 19
27 62 3 47 5 51 28 51 23 0 25 -4 28 -58 3 -49 6 -58 20 -55 25 5 30 113 6
139 -27 30 -87 26 -113 -7z"/>
<path d="M4958 383 c-15 -4 -18 -17 -18 -84 l0 -79 25 12 c23 10 25 16 25 85
0 40 -3 72 -7 72 -5 -1 -16 -3 -25 -6z"/>
<path d="M5188 383 c-24 -6 -26 -114 -2 -137 19 -20 59 -30 75 -21 7 5 10 3 7
-6 -2 -8 -17 -15 -31 -17 -15 -2 -32 -12 -37 -23 -10 -17 -7 -19 30 -19 30 0
47 7 65 25 23 22 25 32 25 115 0 49 -4 90 -8 90 -24 0 -41 -29 -44 -75 -3 -42
-6 -50 -23 -50 -18 0 -20 8 -23 63 -2 34 -6 61 -10 61 -4 -1 -15 -3 -24 -6z"/>
<path d="M5640 370 c-31 -31 -28 -102 6 -129 15 -12 38 -21 51 -21 24 0 73 40
73 60 0 13 -3 13 -45 -7 -24 -11 -39 -13 -45 -7 -7 7 6 18 40 34 27 13 50 29
50 37 0 25 -39 53 -75 53 -22 0 -43 -8 -55 -20z m80 -28 c0 -5 -11 -14 -25
-20 -22 -10 -25 -9 -25 8 0 15 7 20 25 20 14 0 25 -4 25 -8z"/>
<path d="M5832 374 c-19 -13 -22 -24 -22 -80 0 -57 2 -65 18 -62 12 2 18 14
20 38 4 62 12 80 31 80 16 0 31 18 31 36 0 11 -58 2 -78 -12z"/>
<path d="M5933 382 c-9 -6 -4 -27 18 -84 29 -71 33 -76 53 -67 22 10 80 135
70 151 -13 20 -34 4 -49 -37 -20 -51 -30 -50 -46 5 -12 40 -23 47 -46 32z"/>
<path d="M6118 383 c-15 -4 -18 -17 -18 -84 l0 -79 25 12 c23 10 25 16 25 85
0 40 -3 72 -7 72 -5 -1 -16 -3 -25 -6z"/>
<path d="M6211 364 c-29 -37 -27 -89 4 -119 27 -27 51 -31 89 -13 24 10 44 44
33 54 -3 3 -19 -2 -37 -11 -43 -22 -60 -14 -60 30 0 40 21 55 51 37 18 -12 49
-7 49 8 0 18 -40 40 -73 40 -27 0 -41 -7 -56 -26z"/>
<path d="M6392 374 c-18 -12 -22 -25 -22 -64 0 -53 15 -76 58 -87 33 -8 76 16
80 45 4 23 3 23 -28 7 -18 -9 -39 -13 -48 -10 -13 5 -5 13 31 31 51 26 60 49
29 77 -23 21 -71 22 -100 1z m78 -32 c0 -5 -11 -14 -25 -20 -22 -10 -25 -9
-25 8 0 15 7 20 25 20 14 0 25 -4 25 -8z"/>
<path d="M6562 378 c-30 -30 3 -88 50 -88 10 0 18 -7 18 -15 0 -9 -9 -15 -25
-15 -14 0 -25 5 -25 10 0 14 -27 13 -36 -2 -9 -15 32 -48 60 -48 35 0 66 28
66 60 0 31 -22 50 -59 50 -12 0 -21 7 -21 15 0 8 7 15 15 15 8 0 15 -4 15 -10
0 -12 10 -13 29 -1 12 8 12 12 2 25 -16 19 -72 21 -89 4z"/>
</g>
</svg>
