<?xml version="1.0" standalone="no"?>
<!DOCTYPE svg PUBLIC "-//W3C//DTD SVG 20010904//EN"
 "http://www.w3.org/TR/2001/REC-SVG-20010904/DTD/svg10.dtd">
<svg version="1.0" xmlns="http://www.w3.org/2000/svg"
 width="200.000000pt" height="45.000000pt" viewBox="0 0 200.000000 45.000000"
 preserveAspectRatio="xMidYMid meet">

<g transform="translate(0.000000,45.000000) scale(0.100000,-0.100000)"
fill="#000000" stroke="none">
<path d="M1552 271 c-45 -77 -82 -143 -82 -146 0 -3 43 -5 95 -5 52 0 95 2 95
5 0 22 -34 65 -50 65 -11 0 -20 2 -20 4 0 10 42 76 48 76 4 0 36 -52 72 -115
36 -63 67 -115 70 -115 4 0 159 259 168 282 2 4 -42 8 -97 8 l-102 0 17 -31
c8 -17 24 -34 35 -36 10 -3 19 -9 19 -13 0 -11 -34 -70 -40 -70 -3 0 -31 44
-62 98 -91 155 -72 155 -166 -7z"/>
<path d="M340 250 c0 -46 -2 -50 -25 -50 -14 0 -29 8 -35 20 -6 11 -17 20 -25
20 -12 0 -13 -4 -3 -19 16 -26 -5 -51 -43 -51 -23 0 -32 7 -43 33 -14 32 -14
32 -15 5 -1 -29 30 -58 62 -58 10 0 28 10 41 23 17 17 27 20 38 14 8 -6 27 -7
41 -3 25 6 27 10 27 61 0 30 -4 55 -10 55 -5 0 -10 -22 -10 -50z"/>
<path d="M630 250 c0 -49 -1 -50 -29 -50 -23 0 -30 5 -33 22 -2 12 -14 28 -28
35 -32 16 -40 7 -12 -13 34 -24 28 -44 -13 -44 -19 0 -35 -4 -35 -10 0 -11
128 -14 154 -4 12 5 16 20 16 60 0 30 -4 54 -10 54 -5 0 -10 -22 -10 -50z"/>
<path d="M670 240 c0 -33 4 -60 10 -60 6 0 10 27 10 60 0 33 -4 60 -10 60 -6
0 -10 -27 -10 -60z"/>
<path d="M1348 253 c-3 -41 -6 -48 -25 -51 -15 -2 -23 2 -23 11 0 23 -27 40
-55 33 -16 -4 -25 -13 -25 -27 0 -30 -44 -22 -48 9 -5 34 -36 46 -72 28 -22
-11 -32 -11 -37 -3 -5 7 -10 0 -13 -18 -4 -26 -10 -30 -43 -33 -41 -4 -45 2
-21 29 15 17 15 19 -9 30 -14 6 -37 9 -51 5 -28 -7 -35 -30 -11 -40 29 -11 15
-26 -25 -26 -22 0 -40 5 -40 10 0 14 -46 60 -60 60 -18 0 -11 -15 12 -25 13
-6 24 -18 26 -27 3 -15 -4 -18 -32 -18 -20 0 -36 -4 -36 -9 0 -5 102 -10 233
-12 294 -3 347 -1 364 12 15 13 18 109 4 109 -6 0 -11 -21 -13 -47z m-378 -12
c0 -19 -22 -23 -38 -7 -15 15 -14 16 11 16 15 0 27 -4 27 -9z m180 -10 c15
-30 14 -31 -35 -31 -49 0 -53 4 -28 32 21 24 50 23 63 -1z m130 -21 c0 -27
-19 -35 -38 -17 -12 13 -13 19 -3 31 16 19 41 10 41 -14z"/>
<path d="M1390 240 c0 -33 4 -60 10 -60 6 0 10 27 10 60 0 33 -4 60 -10 60 -6
0 -10 -27 -10 -60z"/>
<path d="M410 262 c-17 -6 -30 -22 -30 -39 0 -18 31 -45 46 -39 17 7 18 -6 2
-23 -11 -11 -10 -13 5 -7 10 3 21 6 23 6 2 0 4 20 4 45 0 46 -19 68 -50 57z
m28 -40 c2 -14 -2 -22 -12 -22 -19 0 -29 17 -22 36 8 22 30 12 34 -14z"/>
<path d="M185 120 c-3 -5 -1 -10 4 -10 6 0 11 5 11 10 0 6 -2 10 -4 10 -3 0
-8 -4 -11 -10z"/>
<path d="M220 120 c0 -5 5 -10 10 -10 6 0 10 5 10 10 0 6 -4 10 -10 10 -5 0
-10 -4 -10 -10z"/>
</g>
</svg>
