<?xml version="1.0" standalone="no"?>
<!DOCTYPE svg PUBLIC "-//W3C//DTD SVG 20010904//EN"
 "http://www.w3.org/TR/2001/REC-SVG-20010904/DTD/svg10.dtd">
<svg version="1.0" xmlns="http://www.w3.org/2000/svg"
 width="85.000000pt" height="85.000000pt" viewBox="0 0 85.000000 85.000000"
 preserveAspectRatio="xMidYMid meet">

<g transform="translate(0.000000,85.000000) scale(0.100000,-0.100000)"
fill="#000000" stroke="none">
<path d="M186 739 l-26 -20 0 -220 c0 -125 4 -228 10 -239 14 -26 63 -40 136
-40 l64 0 0 40 0 40 -65 0 -65 0 0 190 0 190 65 0 65 0 0 40 0 40 -79 0 c-64
0 -83 -4 -105 -21z"/>
<path d="M470 720 l0 -40 70 0 70 0 0 -190 0 -190 -70 0 -70 0 0 -40 0 -40 69
0 c78 0 127 14 141 40 6 11 10 114 10 239 l0 220 -26 20 c-22 17 -41 21 -110
21 l-84 0 0 -40z"/>
<path d="M456 589 c-8 -19 -30 -70 -50 -113 -20 -44 -34 -81 -32 -83 6 -6 17
15 66 127 22 51 38 95 36 98 -3 3 -12 -10 -20 -29z"/>
<path d="M295 510 l-39 -40 41 -42 c23 -23 45 -39 48 -36 3 3 -11 22 -32 42
l-38 35 40 41 c21 22 35 40 29 40 -5 0 -28 -18 -49 -40z"/>
<path d="M510 545 c0 -5 14 -24 32 -42 l32 -33 -34 -35 c-18 -19 -31 -37 -29
-40 3 -2 23 13 44 35 l39 40 -42 43 c-23 23 -42 37 -42 32z"/>
<path d="M242 120 c0 -19 2 -27 5 -17 2 9 2 25 0 35 -3 9 -5 1 -5 -18z"/>
<path d="M338 143 c7 -3 16 -2 19 1 4 3 -2 6 -13 5 -11 0 -14 -3 -6 -6z"/>
<path d="M447 125 c7 -37 13 -45 13 -19 0 11 6 26 13 34 10 12 9 12 -5 2 -13
-10 -17 -10 -22 0 -3 7 -3 0 1 -17z"/>
<path d="M500 135 c-7 -9 -10 -18 -6 -22 3 -3 6 -1 6 6 0 6 10 16 23 21 15 6
17 9 6 9 -9 1 -22 -6 -29 -14z"/>
<path d="M572 120 c0 -19 2 -27 5 -17 2 9 2 25 0 35 -3 9 -5 1 -5 -18z"/>
<path d="M602 120 c0 -19 2 -27 5 -17 2 9 2 25 0 35 -3 9 -5 1 -5 -18z"/>
<path d="M547 111 c-4 -17 -3 -21 5 -13 5 5 8 16 6 23 -3 8 -7 3 -11 -10z"/>
</g>
</svg>
