<?xml version="1.0" standalone="no"?>
<!DOCTYPE svg PUBLIC "-//W3C//DTD SVG 20010904//EN"
 "http://www.w3.org/TR/2001/REC-SVG-20010904/DTD/svg10.dtd">
<svg version="1.0" xmlns="http://www.w3.org/2000/svg"
 width="1000.000000pt" height="650.000000pt" viewBox="0 0 1000.000000 650.000000"
 preserveAspectRatio="xMidYMid meet">

<g transform="translate(0.000000,650.000000) scale(0.100000,-0.100000)"
fill="#000000" stroke="none">
<path d="M4237 6102 c-36 -22 -88 -101 -115 -174 -82 -221 -95 -634 -31 -951
64 -316 187 -527 307 -527 69 0 145 89 186 219 40 128 57 237 63 411 18 537
-151 1041 -349 1040 -18 0 -46 -8 -61 -18z"/>
<path d="M2421 5555 c-50 -42 -66 -102 -65 -240 0 -139 20 -251 71 -410 129
-403 360 -758 560 -859 18 -9 54 -16 82 -16 42 0 54 5 79 30 48 47 57 88 56
245 0 122 -4 156 -32 267 -146 590 -565 1139 -751 983z"/>
<path d="M6325 5381 c-56 -25 -101 -74 -141 -153 -120 -238 -120 -618 2 -1041
l34 -120 -32 -51 c-172 -274 -419 -522 -670 -671 -462 -275 -1062 -454 -1773
-530 -203 -22 -733 -31 -950 -16 -531 36 -968 124 -1284 258 l-114 48 -22 112
c-46 226 -110 413 -212 621 -77 156 -118 207 -161 199 -50 -10 -146 -71 -156
-99 -7 -20 2 -70 37 -215 190 -771 183 -1394 -24 -2149 -49 -179 -48 -182 61
-236 132 -65 140 -60 241 147 130 266 217 570 251 873 11 106 13 113 33 108
58 -15 338 -58 465 -72 199 -21 706 -29 955 -15 1131 66 2128 339 2751 753
280 187 481 380 644 621 l53 78 53 -102 c187 -356 501 -693 914 -980 187 -130
232 -146 275 -99 19 21 165 455 165 490 -1 44 -24 60 -132 91 -467 135 -843
419 -1057 798 l-50 89 46 99 c63 135 128 338 148 461 21 124 16 325 -9 417
-40 145 -106 242 -191 281 -60 28 -97 30 -150 5z m105 -211 c50 -70 64 -135
64 -295 1 -121 -3 -166 -21 -235 -26 -103 -82 -260 -92 -260 -5 0 -22 58 -40
129 -65 262 -54 525 29 659 24 40 33 40 60 2z"/>
<path d="M6891 5382 c-96 -48 -107 -187 -19 -242 46 -29 137 -24 173 10 74 70
52 196 -42 236 -43 19 -71 18 -112 -4z m129 -37 c47 -43 50 -126 5 -171 -35
-35 -112 -34 -147 1 -75 75 -17 204 85 191 21 -2 47 -12 57 -21z"/>
<path d="M6900 5260 c0 -56 3 -70 15 -70 9 0 15 9 15 25 0 14 3 25 6 25 3 0
15 -11 26 -25 11 -14 29 -25 40 -25 l21 0 -22 23 c-19 21 -20 25 -6 37 21 18
19 57 -4 70 -11 5 -36 10 -55 10 l-36 0 0 -70z m78 23 c-2 -10 -13 -19 -26
-21 -17 -3 -22 2 -22 17 0 16 6 21 26 21 19 0 25 -5 22 -17z"/>
<path d="M7620 2045 l0 -115 -55 0 -55 0 0 -110 0 -110 55 0 55 0 0 -232 c0
-263 10 -335 55 -393 43 -57 102 -79 210 -79 64 1 104 6 140 20 l50 20 3 101
3 101 -51 -15 c-61 -18 -110 -11 -136 18 -17 19 -19 42 -22 240 l-4 219 111 0
111 0 0 110 0 110 -110 0 -110 0 0 115 0 115 -125 0 -125 0 0 -115z"/>
<path d="M2113 1940 c-58 -12 -99 -35 -155 -87 l-48 -46 0 57 0 56 -125 0
-125 0 0 -450 0 -450 125 0 125 0 0 288 c0 279 1 289 23 332 55 108 210 108
265 0 21 -43 22 -53 22 -332 l0 -288 124 0 124 0 4 288 c3 263 5 290 23 326
28 55 64 78 127 84 65 5 113 -23 143 -83 18 -37 20 -64 23 -327 l4 -288 125 0
125 0 -4 348 c-4 332 -5 349 -26 404 -53 132 -194 200 -348 168 -75 -16 -125
-41 -179 -91 l-43 -40 -53 53 c-72 72 -172 100 -276 78z"/>
<path d="M3504 1936 c-180 -41 -300 -171 -341 -371 -48 -237 74 -461 293 -533
175 -59 386 -18 497 96 l38 39 -71 63 -71 63 -27 -20 c-69 -51 -115 -67 -193
-67 -67 -1 -82 3 -125 29 -35 22 -56 45 -77 85 l-28 55 315 3 316 2 6 27 c10
38 -11 189 -35 259 -43 121 -132 215 -243 254 -74 26 -180 32 -254 16z m148
-197 c49 -13 103 -69 122 -127 27 -77 38 -72 -180 -72 l-196 0 7 28 c20 84 68
145 132 167 47 17 67 18 115 4z"/>
<path d="M4474 1936 c-180 -41 -300 -171 -341 -371 -48 -237 74 -461 293 -533
175 -59 386 -18 497 96 l38 39 -71 63 -71 63 -27 -20 c-69 -51 -115 -67 -193
-67 -67 -1 -82 3 -125 29 -35 22 -56 45 -77 85 l-28 55 315 3 316 2 6 27 c10
38 -11 189 -35 259 -43 121 -132 215 -243 254 -74 26 -180 32 -254 16z m148
-197 c49 -13 103 -69 122 -127 27 -77 38 -72 -180 -72 l-196 0 7 28 c20 84 68
145 132 167 47 17 67 18 115 4z"/>
<path d="M5599 1941 c-65 -13 -128 -58 -170 -123 l-39 -61 0 81 0 82 -125 0
-125 0 0 -450 0 -450 125 0 125 0 0 205 c0 112 5 226 11 254 24 111 107 188
217 200 l57 6 3 133 c3 149 9 140 -79 123z"/>
<path d="M6093 1939 c-128 -21 -240 -92 -308 -194 -139 -211 -95 -499 100
-647 96 -73 240 -108 368 -89 89 14 198 65 249 118 l38 39 -74 73 -73 73 -46
-35 c-60 -46 -106 -60 -176 -55 -76 5 -129 34 -167 91 -63 92 -68 209 -13 305
39 70 93 105 169 110 71 5 114 -8 175 -55 l47 -35 45 43 c24 24 59 62 76 83
l31 39 -39 35 c-56 49 -148 90 -230 102 -80 11 -100 11 -172 -1z"/>
<path d="M8551 1940 c-299 -44 -483 -349 -378 -630 28 -76 55 -116 119 -176
93 -88 198 -128 338 -128 211 0 390 117 461 302 26 69 36 197 20 271 -40 185
-202 333 -396 361 -78 11 -88 11 -164 0z m174 -229 c89 -40 137 -117 143 -227
3 -57 0 -81 -18 -122 -67 -156 -260 -192 -382 -71 -122 122 -94 339 54 413 63
32 143 34 203 7z"/>
<path d="M6900 1930 c-36 -5 -102 -21 -147 -35 l-82 -25 13 -43 c7 -23 21 -67
31 -98 l18 -56 56 20 c36 13 92 21 157 25 86 4 107 2 147 -16 56 -25 87 -70
87 -129 l0 -41 -47 16 c-33 10 -87 15 -173 16 -108 0 -133 -3 -184 -23 -75
-30 -140 -89 -163 -149 -27 -70 -23 -173 10 -237 32 -64 58 -87 132 -121 50
-24 74 -28 145 -28 101 0 168 20 234 70 l46 35 0 -46 0 -45 125 0 125 0 0 278
c0 152 -5 306 -10 342 -22 139 -98 233 -218 270 -77 24 -210 33 -302 20z m238
-525 c51 -15 52 -17 52 -53 -1 -91 -62 -156 -160 -171 -113 -18 -190 28 -190
113 0 52 21 83 74 107 51 23 153 25 224 4z"/>
<path d="M1665 688 c-37 -84 -69 -159 -72 -165 -3 -8 4 -13 19 -13 18 0 29 9
41 35 l17 35 90 0 91 0 15 -35 c11 -27 20 -35 40 -35 14 0 24 4 22 8 -1 5 -34
79 -72 165 -65 146 -72 157 -96 157 -25 0 -32 -11 -95 -152z m131 19 l31 -72
-33 -3 c-19 -2 -49 -2 -68 0 l-34 3 31 73 c17 39 34 72 37 72 3 0 19 -33 36
-73z"/>
<path d="M1960 675 l0 -165 25 0 25 0 0 165 0 165 -25 0 -25 0 0 -165z"/>
<path d="M2080 675 l0 -165 25 0 25 0 0 165 0 165 -25 0 -25 0 0 -165z"/>
<path d="M4257 833 c-4 -3 -7 -33 -7 -65 l0 -59 -30 16 c-47 24 -95 19 -132
-14 -30 -27 -33 -35 -33 -86 0 -51 3 -59 33 -86 38 -34 97 -39 137 -13 23 15
25 15 25 0 0 -9 8 -16 20 -16 19 0 20 7 20 165 0 131 -3 165 -13 165 -8 0 -17
-3 -20 -7z m-37 -153 c45 -45 13 -130 -50 -130 -43 0 -70 31 -70 79 0 30 6 44
22 55 31 22 74 20 98 -4z"/>
<path d="M6230 675 l0 -165 25 0 25 0 0 165 0 165 -25 0 -25 0 0 -165z"/>
<path d="M4474 815 c-4 -9 -2 -21 4 -27 16 -16 47 -5 47 17 0 26 -42 34 -51
10z"/>
<path d="M2327 628 c50 -122 50 -107 8 -210 -6 -14 -2 -18 17 -18 22 0 31 16
95 168 66 155 70 167 51 170 -25 4 -31 -4 -66 -95 -15 -40 -29 -73 -32 -73 -3
0 -19 38 -35 85 -28 79 -32 85 -57 85 l-27 0 46 -112z"/>
<path d="M2603 730 c-81 -33 -79 -176 4 -215 101 -48 199 49 157 155 -25 61
-94 87 -161 60z m104 -52 c32 -30 31 -81 -2 -113 -30 -30 -54 -31 -89 -4 -20
16 -26 29 -26 60 0 71 67 104 117 57z"/>
<path d="M2830 664 c0 -90 18 -137 61 -154 32 -14 75 -6 102 17 16 15 17 14
17 -5 0 -15 6 -22 20 -22 19 0 20 7 20 120 l0 120 -25 0 c-25 0 -25 -1 -25
-78 0 -87 -14 -112 -62 -112 -44 0 -58 28 -58 113 0 75 -1 77 -25 77 -24 0
-25 -2 -25 -76z"/>
<path d="M3230 625 l0 -115 25 0 c24 0 25 2 25 75 0 85 18 115 68 115 48 0 62
-26 62 -113 0 -70 2 -77 20 -77 19 0 20 7 20 90 0 83 -2 93 -25 115 -28 29
-88 34 -122 10 -19 -13 -22 -13 -27 0 -3 8 -15 15 -26 15 -19 0 -20 -6 -20
-115z"/>
<path d="M3560 718 c-84 -57 -54 -195 47 -214 22 -4 49 0 78 11 38 14 43 19
33 34 -10 16 -14 16 -54 2 -41 -15 -45 -15 -71 5 -15 12 -29 29 -31 38 -3 14
8 16 87 16 49 0 92 4 95 8 9 15 -13 78 -34 97 -11 10 -41 20 -67 22 -39 4 -55
0 -83 -19z m122 -35 c30 -27 21 -33 -52 -33 -73 0 -85 8 -48 34 29 21 77 20
100 -1z"/>
<path d="M3830 718 c-84 -57 -54 -195 47 -214 22 -4 49 0 78 11 38 14 43 19
33 34 -10 16 -14 16 -54 2 -41 -15 -45 -15 -71 5 -15 12 -29 29 -31 38 -3 14
8 16 87 16 49 0 92 4 95 8 9 15 -13 78 -34 97 -11 10 -41 20 -67 22 -39 4 -55
0 -83 -19z m122 -35 c30 -27 21 -33 -52 -33 -73 0 -85 8 -48 34 29 21 77 20
100 -1z"/>
<path d="M4480 625 c0 -108 1 -115 20 -115 19 0 20 7 20 115 0 108 -1 115 -20
115 -19 0 -20 -7 -20 -115z"/>
<path d="M4590 625 l0 -115 25 0 c24 0 25 2 25 75 0 85 18 115 68 115 48 0 62
-26 62 -113 0 -70 2 -77 20 -77 19 0 20 7 20 90 0 83 -2 93 -25 115 -28 29
-88 34 -122 10 -19 -13 -22 -13 -27 0 -3 8 -15 15 -26 15 -19 0 -20 -6 -20
-115z"/>
<path d="M5043 730 c-81 -33 -79 -176 4 -215 101 -48 199 49 157 155 -25 61
-94 87 -161 60z m104 -52 c32 -30 31 -81 -2 -113 -30 -30 -54 -31 -89 -4 -20
16 -26 29 -26 60 0 71 67 104 117 57z"/>
<path d="M5260 625 l0 -115 25 0 c24 0 25 2 25 75 0 85 18 115 68 115 48 0 62
-26 62 -113 0 -70 2 -77 20 -77 19 0 20 7 20 90 0 83 -2 93 -25 115 -28 29
-88 34 -122 10 -19 -13 -22 -13 -27 0 -3 8 -15 15 -26 15 -19 0 -20 -6 -20
-115z"/>
<path d="M5590 718 c-84 -57 -54 -195 47 -214 22 -4 49 0 78 11 38 14 43 19
33 34 -10 16 -14 16 -54 2 -41 -15 -45 -15 -71 5 -15 12 -29 29 -31 38 -3 14
8 16 87 16 49 0 92 4 95 8 9 15 -13 78 -34 97 -11 10 -41 20 -67 22 -39 4 -55
0 -83 -19z m122 -35 c30 -27 21 -33 -52 -33 -73 0 -85 8 -48 34 29 21 77 20
100 -1z"/>
<path d="M5940 570 l0 -170 25 0 c24 0 25 2 25 71 l0 70 22 -15 c32 -23 100
-20 131 5 54 41 57 139 7 184 -28 25 -101 31 -132 11 -23 -15 -26 -15 -31 -1
-4 8 -16 15 -27 15 -19 0 -20 -6 -20 -170z m177 108 c30 -28 30 -74 1 -105
-45 -48 -122 -16 -122 52 0 67 72 99 121 53z"/>
<path d="M6378 711 c-30 -27 -33 -35 -33 -86 0 -51 3 -59 33 -86 38 -34 97
-39 137 -13 23 15 25 15 25 0 0 -9 8 -16 20 -16 19 0 20 7 20 115 0 108 -1
115 -20 115 -12 0 -20 -7 -20 -16 0 -15 -2 -15 -25 0 -40 26 -99 21 -137 -13z
m141 -37 c12 -15 21 -37 21 -49 0 -38 -37 -75 -76 -75 -45 0 -74 29 -74 75 0
72 86 104 129 49z"/>
<path d="M6687 720 c-57 -45 -57 -145 1 -190 22 -18 37 -21 80 -18 61 5 82 19
63 42 -10 11 -18 13 -31 6 -53 -29 -110 5 -110 65 0 59 62 96 110 65 9 -5 19
-5 27 2 19 15 16 23 -12 36 -40 19 -99 15 -128 -8z"/>
<path d="M6920 718 c-84 -57 -54 -195 47 -214 22 -4 49 0 78 11 38 14 43 19
33 34 -10 16 -14 16 -54 2 -41 -15 -45 -15 -71 5 -15 12 -29 29 -31 38 -3 14
8 16 87 16 49 0 92 4 95 8 9 15 -13 78 -34 97 -11 10 -41 20 -67 22 -39 4 -55
0 -83 -19z m122 -35 c30 -27 21 -33 -52 -33 -73 0 -85 8 -48 34 29 21 77 20
100 -1z"/>
</g>
</svg>
