<?xml version="1.0" standalone="no"?>
<!DOCTYPE svg PUBLIC "-//W3C//DTD SVG 20010904//EN"
 "http://www.w3.org/TR/2001/REC-SVG-20010904/DTD/svg10.dtd">
<svg version="1.0" xmlns="http://www.w3.org/2000/svg"
 width="3570.000000pt" height="3405.000000pt" viewBox="0 0 3570.000000 3405.000000"
 preserveAspectRatio="xMidYMid meet">

<g transform="translate(0.000000,3405.000000) scale(0.100000,-0.100000)"
fill="#000000" stroke="none">
<path d="M18955 34020 c-341 -80 -645 -271 -905 -566 -270 -308 -460 -595
-734 -1113 -119 -224 -186 -334 -285 -464 -128 -171 -376 -414 -544 -534 l-45
-33 29 54 c37 67 63 184 51 228 -7 27 -13 32 -42 35 -19 2 -102 12 -185 23
-414 52 -736 53 -1105 1 -306 -43 -548 -85 -715 -126 -404 -97 -831 -282
-1330 -576 -149 -88 -150 -89 -95 -39 30 27 118 101 195 162 157 127 260 228
473 467 358 400 542 667 573 836 24 133 -2 204 -94 253 -48 25 -60 27 -167 26
-184 -2 -391 -65 -602 -186 -213 -121 -309 -188 -773 -540 -106 -80 -166 -113
-176 -96 -4 6 -10 72 -14 147 -15 280 -78 371 -255 371 -42 0 -99 -7 -128 -15
-32 -10 -106 -17 -199 -19 -174 -5 -240 -19 -369 -80 -168 -80 -279 -172 -395
-328 -124 -167 -192 -309 -287 -598 -166 -506 -259 -898 -381 -1607 -105 -610
-149 -790 -277 -1145 -122 -339 -195 -479 -299 -582 -83 -82 -186 -137 -214
-112 -81 70 -262 99 -460 72 l-114 -15 -66 62 c-49 46 -95 76 -175 115 -59 29
-128 66 -152 82 -43 30 -44 30 -110 20 -190 -30 -349 -119 -573 -320 -205
-183 -314 -270 -365 -289 -50 -19 -74 -12 -42 12 8 7 34 71 57 142 118 373
476 1047 1011 1906 335 536 545 895 626 1069 84 180 190 462 208 555 19 104
22 334 5 379 -10 26 -15 28 -47 23 -19 -3 -45 -14 -58 -24 -284 -223 -381
-267 -601 -266 -129 0 -229 23 -457 104 -262 93 -372 129 -396 129 -38 0 -155
-67 -219 -125 -62 -56 -156 -201 -243 -375 -84 -169 -177 -291 -249 -329 -19
-10 -27 -6 -69 36 -26 26 -80 100 -119 163 -85 138 -168 222 -234 240 -61 17
-279 7 -341 -15 -54 -19 -138 -90 -173 -145 -54 -85 -69 -215 -40 -337 109
-462 102 -701 -44 -1574 -69 -410 -87 -549 -101 -749 -12 -185 -12 -534 0
-815 l10 -219 51 -151 c93 -269 193 -451 338 -608 l67 -72 -9 -85 c-13 -142
-13 -685 2 -1477 8 -414 11 -778 7 -810 -15 -132 -32 -168 -216 -473 -276
-458 -614 -1046 -969 -1687 l-62 -112 -254 -170 c-140 -93 -346 -233 -459
-311 -113 -78 -208 -142 -212 -143 -4 -1 -13 16 -21 38 -16 50 -94 150 -136
175 -53 33 -155 27 -271 -14 -139 -51 -203 -62 -249 -43 -20 9 -45 30 -56 48
-19 31 -38 115 -44 199 -2 25 -8 45 -13 45 -27 0 -349 -362 -491 -553 -278
-371 -455 -746 -578 -1226 l-43 -169 -79 -71 c-893 -810 -1566 -1641 -1958
-2416 -249 -494 -383 -927 -447 -1440 -20 -161 -17 -675 5 -880 126 -1159 615
-2337 1560 -3755 810 -1215 1806 -2353 3007 -3435 1206 -1087 2702 -2160 4330
-3107 164 -96 278 -168 300 -192 50 -53 85 -74 114 -67 19 5 82 -26 283 -138
1757 -975 4224 -2105 5943 -2721 102 -36 221 -79 265 -95 152 -56 921 -309
1135 -373 588 -177 1025 -294 1520 -407 124 -28 252 -57 285 -65 126 -29 580
-117 800 -155 1311 -225 2571 -301 3565 -215 1458 127 2533 569 3340 1375 368
367 674 793 963 1340 l66 125 796 2735 c492 1691 808 2790 826 2880 40 196
188 983 235 1255 37 210 39 217 44 157 3 -34 3 -579 0 -1210 -3 -631 -3 -1232
0 -1337 l5 -190 389 -3 388 -2 -3 207 c-2 115 0 622 5 1128 10 1121 -3 1572
-60 2025 -60 473 -194 874 -391 1163 l-53 78 40 287 c114 822 209 1611 284
2382 20 195 38 383 41 418 l7 62 112 0 c243 0 501 42 738 120 550 181 999 569
1355 1170 71 120 123 217 123 228 0 13 -52 34 -61 25 -4 -4 -33 -53 -65 -108
-389 -678 -907 -1098 -1500 -1215 -167 -33 -625 -41 -672 -11 -10 6 -8 62 8
247 44 530 88 1207 115 1794 33 730 40 1050 40 1943 l0 917 30 -6 c17 -3 83
-23 148 -45 533 -176 1115 -680 1379 -1195 l48 -95 0 464 0 465 -147 75 c-528
269 -968 411 -1404 452 l-66 6 -7 217 c-23 750 -93 1636 -187 2382 -461 3663
-1675 6015 -3600 6981 -540 270 -1130 430 -1809 491 -185 16 -757 16 -955 0
-643 -54 -1288 -180 -1965 -386 -593 -180 -1894 -633 -2768 -965 -118 -45
-216 -81 -218 -81 -2 0 -4 30 -4 66 0 77 -26 187 -78 327 -31 85 -47 111 -101
171 -34 39 -72 87 -82 108 -35 69 -21 150 42 240 11 14 19 34 19 43 0 24 -63
156 -104 218 -58 88 -54 99 89 247 100 103 125 146 125 220 0 55 -24 96 -103
177 -40 41 -69 59 -136 86 -138 55 -175 61 -360 54 -91 -3 -177 -9 -191 -12
-50 -13 65 49 179 97 130 54 180 85 213 129 13 17 99 83 193 147 487 335 832
619 1176 969 355 361 491 613 435 806 -22 75 -54 110 -141 153 -59 29 -87 37
-146 40 -126 6 -176 22 -345 110 l-160 84 -80 -7 c-104 -8 -124 2 -124 60 0
23 16 96 37 162 30 100 36 136 37 215 1 76 -3 101 -17 123 -9 15 -21 27 -25
26 -4 0 -61 -13 -127 -29z m92 -127 c-3 -47 -18 -101 -46 -173 l-42 -105 -137
-92 c-360 -241 -738 -586 -1177 -1075 -77 -86 -141 -155 -143 -153 -4 4 325
577 450 785 312 518 570 752 945 854 48 14 103 25 122 25 l34 1 -6 -67z m-118
-366 c-208 -174 -363 -326 -1250 -1225 -223 -227 -411 -412 -418 -412 -21 0
83 141 210 285 572 650 952 1013 1348 1284 57 39 107 71 109 71 3 0 3 -2 1 -3z
m23 -113 l16 -36 -356 -391 c-524 -576 -907 -959 -1123 -1124 -142 -108 -582
-383 -594 -371 -2 2 27 30 65 63 453 399 548 489 988 944 506 524 945 950 977
950 6 0 18 -16 27 -35z m179 -89 c36 -4 79 -16 98 -28 31 -19 33 -22 17 -31
-254 -153 -426 -309 -702 -636 -198 -234 -388 -412 -659 -615 -316 -237 -696
-475 -1070 -670 -99 -52 -124 -62 -105 -42 14 15 102 67 195 118 243 130 358
200 510 314 306 228 673 589 1243 1222 339 376 354 391 381 383 15 -4 57 -11
92 -15z m289 -152 c30 -19 81 -43 113 -55 32 -12 54 -24 50 -28 -4 -4 -105
-76 -223 -160 -118 -85 -384 -278 -590 -430 -1135 -836 -1666 -1168 -2310
-1442 l-45 -19 45 40 c26 23 143 91 275 159 679 353 1093 626 1479 976 73 67
465 480 582 615 89 102 346 311 469 382 48 27 51 28 75 12 14 -10 50 -32 80
-50z m313 -100 c24 -3 52 -19 73 -38 27 -26 34 -40 34 -72 0 -21 -6 -46 -12
-55 -7 -8 -67 -48 -133 -88 -196 -120 -367 -228 -825 -523 -698 -450 -1016
-644 -1391 -850 -427 -235 -1062 -520 -1114 -501 -10 4 33 27 117 64 307 132
568 268 893 463 378 226 684 437 1395 961 648 477 883 645 905 645 11 1 37 -2
58 -6z m16 -300 c-21 -26 -383 -313 -579 -459 -779 -584 -1499 -988 -2255
-1268 -238 -89 -300 -108 -334 -104 -25 2 0 16 132 71 201 85 647 305 867 428
344 192 679 397 1330 817 467 301 833 532 844 532 5 0 2 -8 -5 -17z m-5644
-194 c21 -6 54 -26 72 -44 29 -29 33 -39 33 -87 0 -99 -54 -221 -151 -344
-236 -297 -653 -704 -897 -877 -359 -254 -718 -572 -955 -845 -108 -124 -509
-615 -843 -1032 -341 -424 -393 -481 -584 -632 -79 -63 -282 -259 -320 -310
-31 -43 -313 -235 -288 -197 286 438 561 896 863 1439 263 474 357 602 939
1284 264 309 393 466 518 631 59 77 101 121 143 150 32 22 133 105 224 185
517 453 760 608 1051 670 101 22 141 24 195 9z m5365 -125 c-109 -110 -337
-318 -491 -446 -649 -542 -1307 -877 -2027 -1032 -63 -13 -111 -22 -108 -19 3
3 69 30 146 59 595 224 1223 558 1815 966 156 108 566 412 675 502 30 24 57
45 60 45 2 1 -29 -33 -70 -75z m-7290 -346 c26 -28 37 -69 50 -188 23 -205 61
-272 162 -285 31 -4 62 -4 70 1 15 9 23 20 -93 -131 -90 -118 -239 -298 -629
-760 -499 -590 -616 -762 -793 -1157 -79 -174 -183 -374 -291 -556 -69 -115
-482 -742 -490 -742 -3 0 20 53 51 118 30 64 167 356 303 647 527 1129 733
1554 970 2005 250 478 566 1029 603 1055 30 21 63 19 87 -7z m-258 -145 c-383
-652 -753 -1375 -1247 -2443 -116 -250 -133 -285 -123 -245 23 87 158 607 208
805 175 685 350 1236 474 1495 65 135 201 341 258 389 85 73 186 104 368 114
69 4 127 7 128 5 2 -1 -28 -55 -66 -120z m6538 -417 c-36 -33 -407 -330 -439
-352 -76 -50 -453 -161 -690 -204 -161 -28 -173 -24 -46 15 277 85 472 163
716 285 141 71 394 215 444 254 25 19 34 21 15 2z m-2051 -15 c11 -7 11 -18 2
-60 -6 -29 -18 -66 -27 -83 -23 -43 -97 -121 -174 -181 -36 -28 -95 -75 -131
-104 l-66 -53 -324 0 c-444 0 -747 -20 -1109 -71 -614 -87 -1213 -272 -1769
-545 -103 -51 -187 -91 -189 -89 -1 1 9 27 23 59 14 31 32 85 41 120 l16 65
222 114 c646 335 1110 518 1604 632 375 86 948 178 1242 198 106 8 626 6 639
-2z m-8435 -20 c3 -5 -33 -74 -80 -153 -231 -388 -402 -793 -538 -1275 -91
-323 -137 -541 -236 -1123 -107 -628 -120 -682 -237 -977 -53 -134 -98 -241
-100 -239 -2 2 31 138 73 302 42 165 110 430 151 589 81 318 161 702 192 920
62 433 51 769 -32 973 l-25 62 27 0 c42 0 147 68 230 150 82 80 77 71 282 495
50 101 126 203 187 249 45 34 94 46 106 27z m183 -52 c54 -17 99 -32 100 -33
1 -1 -6 -20 -17 -42 -10 -21 -23 -73 -29 -114 -36 -264 -334 -1122 -804 -2315
-87 -222 -243 -553 -232 -495 2 14 29 126 59 250 87 357 172 643 416 1405 186
582 324 1051 375 1280 18 82 23 95 30 95 2 0 49 -14 102 -31z m1213 11 c0 -12
-7 -35 -17 -53 -28 -55 -369 -623 -808 -1347 -483 -796 -684 -1134 -903 -1515
-85 -148 -158 -274 -163 -280 -5 -5 4 27 20 70 352 965 897 1926 1686 2976 47
62 99 119 125 137 54 37 60 38 60 12z m-1006 -80 c14 -5 28 -20 31 -33 16 -61
-106 -454 -225 -727 -71 -163 -231 -502 -236 -498 -1 2 57 181 130 398 115
343 172 545 227 800 10 44 24 70 40 70 4 0 19 -4 33 -10z m421 -84 c72 0 150
2 173 7 l44 8 -79 -63 c-218 -174 -432 -432 -606 -728 -83 -143 -250 -485
-366 -755 -58 -132 -153 -343 -213 -469 -60 -125 -155 -339 -209 -475 -95
-233 -220 -505 -251 -544 -12 -16 -18 -17 -41 -6 -15 7 -27 17 -27 23 0 17
169 410 275 641 53 116 149 341 212 500 126 314 235 562 445 1005 75 157 156
337 181 400 63 161 134 385 142 451 l7 56 91 -25 c74 -20 117 -25 222 -26z
m303 -23 c-160 -208 -436 -606 -620 -893 -454 -708 -805 -1409 -1038 -2075
-67 -190 -56 -175 -91 -122 l-30 46 103 208 c57 114 139 294 182 398 102 250
155 370 272 616 53 112 135 296 184 409 209 490 338 730 523 974 74 97 237
267 327 341 90 73 222 166 227 161 3 -3 -15 -31 -39 -63z m-1174 -85 c-74
-279 -159 -561 -354 -1173 -220 -691 -347 -1130 -416 -1445 -15 -69 -31 -129
-36 -134 -15 -18 -19 2 -8 50 6 26 42 230 80 453 152 896 277 1361 497 1861
81 182 255 520 268 520 2 0 -12 -60 -31 -132z m8346 -62 c0 -2 -7 -7 -16 -10
-8 -3 -12 -2 -9 4 6 10 25 14 25 6z m-9506 -164 c39 -27 52 -42 179 -213 l64
-87 -14 -103 c-36 -275 -81 -580 -158 -1079 -136 -887 -189 -1281 -220 -1665
-9 -104 -18 -197 -20 -205 -14 -51 8 450 50 1105 38 597 45 772 45 1099 0 408
-22 703 -71 981 -11 61 -22 129 -25 152 l-7 42 39 4 c59 6 95 -2 138 -31z
m9183 22 l21 -6 -25 -36 c-13 -20 -31 -62 -40 -93 l-16 -57 -131 -6 c-72 -4
-275 -13 -451 -21 -1119 -52 -1791 -161 -2409 -388 -81 -30 -144 -51 -139 -46
15 15 340 163 488 222 636 253 1314 393 2075 426 227 10 597 13 627 5z m-9422
-26 c77 -328 109 -676 108 -1178 0 -379 -4 -476 -48 -1145 -13 -203 -30 -464
-36 -580 -15 -253 -16 -893 -2 -1060 5 -66 7 -151 4 -190 l-6 -70 -43 88 c-87
179 -138 333 -169 512 -14 81 -17 159 -17 405 0 439 23 648 143 1305 104 572
144 900 144 1175 0 210 -19 361 -69 549 -46 173 -47 178 -40 196 8 22 25 18
31 -7z m2523 -250 c-145 -282 -268 -504 -570 -1026 -293 -508 -442 -773 -538
-957 -40 -77 -90 -162 -110 -190 -90 -120 -202 -328 -324 -599 -15 -34 -30
-56 -35 -50 -5 5 -18 38 -29 73 l-21 63 21 42 c102 200 578 1006 1153 1951
237 391 461 758 496 816 35 59 66 105 68 103 2 -1 -48 -103 -111 -226z m7416
93 c3 -4 -20 -11 -52 -14 -31 -4 -73 -9 -92 -12 -20 -3 -9 3 25 14 67 21 111
25 119 12z m1764 -44 c15 -6 62 -33 105 -60 90 -57 137 -76 190 -77 36 0 37
-1 37 -36 0 -50 -11 -66 -116 -176 -97 -102 -124 -153 -124 -235 0 -21 -4 -31
-12 -28 -27 9 -364 35 -598 45 -135 6 -348 15 -475 20 -517 23 -951 86 -1157
167 l-38 15 0 64 c0 34 5 85 11 113 8 40 7 55 -5 79 l-15 30 143 7 c128 7 390
-1 831 -24 143 -8 514 4 611 19 38 6 132 26 210 45 77 20 167 39 200 44 68 11
163 5 202 -12z m-2758 -43 c-8 -2 -283 -38 -610 -79 -1110 -140 -1562 -228
-2108 -410 -124 -42 -227 -73 -230 -70 -9 8 172 89 343 152 461 173 951 278
1585 342 342 35 1085 82 1020 65z m455 -70 c16 -44 16 -48 -1 -107 -14 -45
-19 -94 -18 -179 0 -65 -1 -118 -2 -118 -1 0 -103 -22 -226 -49 -122 -28 -383
-81 -578 -120 -1546 -304 -1691 -335 -2140 -457 -272 -74 -622 -186 -844 -269
-159 -59 -434 -174 -506 -210 -92 -46 -98 -41 -30 23 74 69 161 118 390 217
524 227 1028 402 1911 665 1028 307 1458 445 1824 584 94 36 177 65 186 65 10
1 23 -16 34 -45z m-416 12 c-6 -5 -518 -150 -853 -241 l-279 -75 -326 -4
c-179 -2 -378 -9 -441 -15 -392 -40 -727 -114 -1049 -233 -57 -21 -106 -36
-108 -34 -12 12 374 144 612 209 459 127 887 201 1885 327 267 33 490 62 495
65 13 5 69 6 64 1z m-8382 -265 c-9 -281 -34 -485 -117 -946 -109 -601 -216
-1252 -290 -1750 -41 -280 -49 -326 -72 -393 l-19 -57 6 180 c18 562 95 1151
260 1995 85 437 149 854 171 1117 l7 82 30 -15 30 -16 -6 -197z m8073 108
c-114 -40 -442 -145 -596 -192 l-81 -24 5 23 c3 18 14 27 46 35 183 48 702
191 705 195 2 2 11 4 20 3 9 0 -36 -18 -99 -40z m9370 -119 c1684 -119 2975
-926 3920 -2450 875 -1412 1436 -3485 1644 -6075 43 -528 93 -1485 79 -1507
-2 -5 -64 -8 -138 -8 -524 0 -1128 -215 -1595 -568 -471 -356 -796 -855 -930
-1427 -81 -342 -92 -796 -29 -1165 72 -423 233 -789 486 -1105 437 -546 1110
-885 1893 -955 69 -6 126 -13 129 -15 5 -6 -55 -615 -114 -1150 -61 -551 -132
-1121 -200 -1607 -25 -179 -45 -332 -45 -338 0 -7 -33 21 -73 62 -238 245
-520 360 -876 359 -261 -1 -459 -56 -655 -184 -385 -253 -638 -766 -759 -1542
l-24 -150 -7 95 c-17 211 -45 384 -92 559 -176 655 -606 1113 -1134 1207 -99
17 -312 19 -419 4 -256 -36 -471 -138 -654 -310 -361 -338 -575 -917 -686
-1850 -5 -48 -9 321 -10 1008 l-1 1082 -385 0 -385 0 0 -2495 0 -2495 385 0
385 0 0 938 c0 515 5 1050 10 1187 45 1105 214 1856 522 2318 82 124 239 278
341 336 313 177 649 153 897 -63 180 -156 327 -443 399 -776 57 -269 55 -168
58 -2132 l4 -1808 384 0 384 0 4 1232 c4 1223 7 1317 42 1693 99 1035 367
1675 795 1890 128 65 198 80 360 80 132 -1 151 -3 212 -27 252 -96 428 -323
558 -715 93 -284 157 -692 161 -1023 1 -108 -5 -161 -45 -390 -99 -562 -247
-1346 -281 -1495 -7 -33 -370 -1284 -805 -2780 l-792 -2720 -73 -140 c-410
-789 -950 -1425 -1546 -1821 -750 -497 -1615 -772 -2739 -869 -912 -79 -2136
-12 -3330 181 -2149 347 -4460 1111 -7285 2407 -1021 468 -1929 925 -2892
1455 -161 89 -211 121 -206 132 45 109 31 142 -103 254 -124 103 -299 237
-474 362 -110 79 -191 135 -445 309 -118 80 -118 75 -5 -31 239 -221 765 -761
714 -732 -1796 1036 -3329 2142 -4673 3372 -240 219 -920 899 -1132 1131 -645
706 -1155 1353 -1648 2090 -988 1477 -1487 2702 -1582 3888 -15 192 -6 670 15
822 109 766 438 1502 1019 2277 252 336 491 612 831 957 219 222 566 554 572
548 2 -1 -4 -41 -12 -87 -22 -129 -52 -379 -64 -535 -32 -435 8 -1294 95
-2070 39 -346 83 -800 89 -920 13 -231 33 -348 68 -395 40 -55 52 -41 62 75 6
65 70 325 135 551 117 405 275 793 464 1136 80 147 195 331 184 297 -3 -9 -39
-122 -81 -250 -126 -392 -248 -809 -345 -1180 -63 -242 -131 -539 -131 -574 0
-44 -26 -206 -130 -805 -167 -967 -196 -1214 -199 -1675 -2 -382 20 -627 90
-989 275 -1430 927 -2654 2013 -3775 119 -123 120 -124 86 -65 -308 544 -542
1031 -773 1614 -514 1295 -862 2690 -978 3915 -24 254 -35 811 -19 990 11 117
35 297 49 355 4 20 3 89 -2 154 -9 106 -9 119 6 127 19 11 58 130 77 233 12
63 18 75 85 155 40 47 122 133 181 191 238 231 449 356 718 428 91 24 118 26
271 26 152 0 181 -3 267 -27 527 -142 1022 -604 2028 -1896 177 -228 375 -480
440 -561 129 -161 157 -213 237 -445 321 -936 624 -1679 819 -2005 135 -228
416 -613 520 -716 78 -75 246 -189 339 -227 58 -24 80 -28 130 -24 94 7 166
52 205 128 18 34 22 36 81 43 34 3 82 6 107 6 32 0 73 13 146 46 193 89 354
134 478 134 39 0 123 -9 187 -19 174 -29 230 -33 306 -21 204 32 304 150 330
390 11 95 -28 330 -70 425 -12 28 -64 120 -115 205 -120 199 -151 265 -157
339 -8 85 2 120 51 187 65 88 90 165 84 262 -8 133 -74 226 -265 369 -135 101
-208 179 -258 275 -46 86 -44 99 30 215 56 88 85 162 85 214 0 60 -159 315
-258 416 -46 46 -82 70 -185 121 -194 95 -258 114 -402 118 -318 8 -662 -76
-1385 -338 -190 -69 -374 -135 -410 -147 -104 -34 -281 -71 -338 -71 -51 0
-56 2 -112 56 -53 50 -59 54 -69 37 -7 -12 -13 -14 -18 -7 -5 6 -48 73 -98
150 -161 249 -401 608 -505 754 -452 636 -885 1097 -1330 1414 -277 198 -558
312 -787 318 -34 1 -60 5 -57 9 8 14 187 79 289 105 72 18 137 27 230 31 163
7 269 -10 453 -73 204 -69 345 -131 1147 -509 164 -77 334 -208 640 -495 384
-359 550 -484 708 -532 88 -26 218 -22 289 9 160 72 274 303 343 698 13 72 25
109 43 133 48 63 42 193 -20 417 -58 212 -126 346 -306 599 -105 147 -191 288
-221 363 -8 20 -11 47 -7 69 9 47 10 425 1 500 -9 81 -33 170 -57 218 -31 63
-114 171 -154 201 -84 64 -233 111 -524 164 -208 39 -309 66 -339 94 -40 37
-60 97 -70 209 -9 110 -32 179 -67 209 -49 41 -103 51 -234 44 -192 -11 -259
-26 -385 -89 -131 -67 -256 -158 -374 -275 -183 -182 -339 -408 -604 -871
-242 -425 -293 -505 -436 -695 -97 -128 -187 -232 -324 -372 -64 -65 -106
-117 -102 -123 4 -6 14 -9 24 -5 12 5 11 1 -4 -13 -14 -12 -44 -22 -84 -26
-359 -41 -734 -281 -1045 -669 -78 -96 -89 -108 -81 -84 2 6 32 118 65 247
145 553 284 1019 506 1691 l105 317 53 50 c102 97 397 273 564 337 109 42 326
103 497 140 165 35 236 58 331 104 95 46 193 132 243 215 70 117 135 371 134
526 -2 148 -91 478 -169 619 -85 154 -318 360 -524 462 l-60 30 54 107 54 108
134 42 c202 63 300 89 453 121 362 77 582 91 991 67 149 -9 457 -27 685 -41
228 -14 467 -25 531 -25 112 0 117 -1 124 -22 3 -13 92 -203 196 -423 343
-723 764 -1527 998 -1905 162 -260 408 -599 431 -593 5 2 9 -7 9 -20 -1 -22
-1 -22 -16 -2 -8 11 -21 29 -28 40 -8 11 -17 17 -21 13 -4 -4 18 -67 48 -140
129 -312 149 -432 177 -1111 18 -430 39 -594 131 -1047 119 -588 187 -790 313
-927 70 -78 130 -105 236 -111 82 -4 87 -3 118 23 42 35 57 65 72 140 8 43 9
80 2 130 -15 108 -21 107 295 64 168 -22 278 -24 350 -5 104 28 140 64 210
211 26 55 56 99 98 142 73 75 86 78 370 93 260 14 289 20 394 85 91 57 120 83
168 155 80 120 113 224 113 366 0 199 -83 432 -178 499 -85 58 -161 136 -172
174 -6 20 -13 113 -17 208 -8 231 -8 231 -163 297 -63 26 -236 104 -385 171
-178 81 -330 142 -445 180 -96 31 -260 85 -365 120 -221 74 -352 107 -692 176
-289 58 -475 88 -562 90 l-61 2 -84 126 c-264 400 -547 954 -893 1751 -211
486 -325 689 -544 971 l-67 86 114 17 c246 36 379 86 712 269 779 425 1345
659 1976 818 87 22 170 49 185 59 14 10 73 30 131 45 98 26 114 27 250 22 151
-6 355 -29 625 -71 288 -45 426 -57 705 -63 729 -15 1088 59 1441 296 170 113
199 146 259 286 128 299 260 455 560 660 260 177 294 243 234 445 -55 186 -41
348 47 524 27 55 49 109 49 121 0 28 -35 74 -67 86 -36 13 -137 27 -248 34
-94 5 -528 27 -805 41 -146 7 -178 19 -210 75 -24 44 -24 38 -4 276 l6 71 -78
7 c-138 13 -338 0 -435 -29 -239 -70 -406 -148 -551 -256 -335 -251 -609 -575
-1103 -1305 -189 -280 -326 -473 -441 -625 -106 -140 -297 -372 -331 -403 -15
-13 -55 -21 -159 -32 -257 -27 -529 -87 -773 -170 -58 -19 -106 -35 -108 -35
-2 0 37 35 85 79 122 110 386 381 521 536 250 286 715 872 837 1055 117 174
258 441 299 565 28 83 44 249 26 275 -8 11 -30 15 -88 14 -43 0 -91 -4 -106
-8 l-28 -7 29 43 c16 24 77 116 135 205 100 153 111 165 180 212 148 100 248
240 269 379 14 87 0 143 -49 208 -19 25 -33 47 -31 48 36 27 679 366 1176 620
1492 762 2989 1445 4602 2098 l395 160 130 2 c187 2 262 35 316 139 11 21 32
43 47 48 722 285 2331 851 2971 1045 734 223 1395 350 2036 393 178 12 639 12
805 1z m-8275 -160 c280 -112 551 -192 1210 -355 411 -102 723 -186 796 -213
19 -8 37 -33 67 -96 23 -47 55 -107 72 -132 61 -87 120 -407 83 -445 -25 -25
-95 -22 -198 11 -236 76 -423 160 -970 436 -308 155 -625 311 -705 347 -139
62 -386 158 -441 172 -22 5 -28 15 -39 63 -7 31 -34 108 -61 171 -27 62 -49
120 -49 127 0 10 15 7 58 -12 31 -14 111 -47 177 -74z m-2192 45 c-22 -7 -101
-21 -175 -30 -554 -70 -1124 -205 -1508 -357 -41 -17 -97 -39 -124 -49 l-48
-20 30 38 c81 102 101 115 258 175 437 166 936 254 1444 256 150 0 161 -1 123
-13z m327 -11 c-47 -17 -50 -17 -50 4 0 15 7 17 43 13 l42 -4 -35 -13z m2235
-54 c214 -26 389 -37 830 -55 387 -16 593 -29 758 -48 l99 -12 13 -38 c7 -20
24 -52 39 -71 14 -19 26 -38 26 -41 0 -4 -15 -24 -33 -46 -30 -34 -40 -58 -73
-176 -2 -10 -12 -9 -43 2 -89 31 -422 120 -861 230 -256 64 -537 139 -625 165
-195 60 -373 122 -325 115 19 -3 107 -14 195 -25z m-2770 -104 c-695 -209
-1103 -342 -1439 -470 -66 -25 -121 -44 -123 -42 -6 5 280 130 442 193 483
190 1168 404 1363 428 59 7 121 13 137 13 17 1 -154 -55 -380 -122z m2066 4
c30 -92 45 -201 35 -248 -7 -28 -7 -28 -148 -51 -454 -71 -1036 -119 -1846
-152 -224 -9 -298 -9 -315 0 -16 8 -32 8 -56 1 -20 -6 -39 -6 -45 -1 -12 10
-216 -19 -456 -64 -206 -39 -207 -38 -30 10 355 97 617 152 1945 415 281 55
587 118 680 140 94 21 179 38 190 37 15 -2 25 -20 46 -87z m-2302 36 c-2 -2
-80 -27 -174 -56 -334 -103 -753 -258 -1040 -385 -126 -56 -483 -231 -575
-282 -35 -20 -7 11 125 140 l170 166 175 69 c381 152 737 249 1245 341 58 10
80 12 74 7z m2729 -348 c61 -40 210 -139 330 -219 236 -159 310 -204 692 -424
374 -215 562 -302 779 -361 31 -8 16 -16 -275 -133 -1848 -740 -3778 -1639
-5557 -2588 l-307 -164 -45 26 c-46 27 -52 40 -70 135 -15 83 -23 91 -160 172
-33 19 -109 61 -170 93 -113 59 -165 98 -165 122 0 8 13 31 29 51 38 49 56
104 41 131 -23 45 -258 95 -445 95 -127 0 -133 -1 -260 -43 -173 -58 -405
-158 -540 -233 -282 -157 -764 -455 -1110 -686 -209 -140 -416 -272 -460 -294
-43 -22 -196 -88 -340 -145 -284 -115 -421 -176 -497 -223 -27 -17 -46 -25
-42 -18 9 14 476 551 873 1003 499 569 798 971 950 1280 82 166 94 203 95 312
l1 92 105 35 c189 63 293 79 470 73 277 -10 474 -73 1002 -321 520 -244 661
-284 967 -273 245 9 276 17 601 161 l205 91 130 -2 c91 0 173 -9 275 -27 487
-88 490 -88 650 -90 141 -1 164 2 253 26 54 16 136 44 183 64 99 43 151 94
185 183 19 50 21 69 15 171 -3 63 -12 144 -20 180 -9 36 -15 97 -16 137 0 100
22 126 128 148 243 52 416 123 497 204 55 57 64 96 32 145 -26 38 -54 54 -184
98 -131 45 -258 61 -311 39 -26 -11 -76 -2 -413 73 -552 122 -685 143 -1047
167 -240 15 -801 6 -971 -15 -68 -9 -126 -14 -128 -12 -6 5 217 58 382 90 555
109 1227 177 1770 179 182 1 269 -4 415 -21 384 -47 560 -39 779 34 152 51
215 87 307 179 124 123 194 260 194 381 l0 43 43 -24 c23 -14 93 -57 155 -97z
m-418 -25 c0 -17 -63 -101 -111 -150 -61 -62 -161 -117 -255 -139 -119 -29
-322 -23 -654 21 -279 37 -289 37 -509 31 -408 -12 -734 -44 -1216 -121 -154
-25 -343 -54 -420 -64 -77 -11 -156 -23 -175 -26 -19 -3 -30 -3 -25 0 17 8
347 100 645 181 l285 76 410 19 c941 42 1430 82 1865 153 80 13 148 24 153 25
4 0 7 -2 7 -6z m-2745 -219 c-5 -2 -134 -38 -285 -79 -635 -174 -1020 -307
-1438 -496 -84 -38 -158 -69 -164 -69 -6 0 1 14 18 31 35 38 204 120 434 212
388 154 774 269 1255 371 145 31 207 41 180 30z m675 -659 c242 -21 533 -67
868 -136 52 -10 133 -19 181 -19 167 -1 302 -32 345 -79 33 -37 25 -62 -35
-104 -51 -35 -65 -40 -165 -52 -60 -7 -130 -19 -156 -25 -36 -9 -99 -9 -295 4
-1129 73 -1932 67 -2663 -20 -643 -76 -1331 -242 -1872 -452 -159 -62 -60 8
274 192 446 246 1401 540 2063 635 435 63 1092 88 1455 56z m225 -435 c543
-28 635 -34 635 -41 0 -4 -12 -10 -26 -13 -15 -4 -52 -33 -84 -64 -78 -79 -83
-104 -75 -382 8 -229 4 -257 -37 -284 -45 -29 -181 -58 -299 -63 -141 -7 -238
8 -524 78 l-200 50 -330 159 c-394 189 -485 230 -630 282 -244 88 -430 114
-698 98 -426 -26 -919 -85 -1160 -140 -62 -13 -57 -4 7 14 591 172 1312 282
2069 316 226 10 1094 4 1352 -10z m-1815 -273 c190 -46 344 -107 744 -298 187
-89 233 -115 210 -116 -161 -14 -286 -50 -474 -138 -74 -35 -153 -68 -176 -74
-90 -24 -243 -32 -367 -21 -196 18 -312 53 -897 268 -384 141 -549 185 -779
206 l-126 12 103 22 c343 74 695 124 1142 161 58 5 197 8 310 6 178 -2 219 -6
310 -28z m-3660 -174 c43 -32 79 -61 79 -65 1 -4 -37 -62 -83 -130 -297 -436
-599 -957 -1059 -1830 -80 -152 -217 -395 -303 -540 -306 -514 -382 -657 -490
-923 -29 -71 -53 -124 -54 -117 0 23 79 328 146 562 64 222 167 535 526 1600
176 522 298 908 298 947 0 10 9 24 20 31 22 13 188 147 315 252 126 105 203
158 290 200 64 31 172 64 228 69 5 1 44 -25 87 -56z m-1438 -43 c27 -31 80
-121 137 -235 93 -185 124 -228 177 -241 25 -6 87 0 118 12 14 5 15 3 7 -17
-5 -13 -39 -123 -75 -244 -76 -256 -174 -555 -426 -1295 -238 -703 -315 -954
-449 -1475 -14 -57 -19 -67 -15 -35 2 25 15 200 29 390 23 326 31 496 55 1135
17 439 37 666 105 1160 40 286 54 363 100 530 60 218 131 364 177 365 9 0 36
-23 60 -50z m1654 -117 c20 -21 47 -59 60 -84 28 -55 43 -61 142 -51 39 5 72
5 72 1 0 -8 -291 -429 -721 -1044 -800 -1142 -1234 -1815 -1549 -2400 -46 -84
-135 -202 -161 -213 -15 -6 116 334 218 568 75 172 292 609 404 815 50 94 212
382 359 640 147 259 350 619 450 800 345 622 484 847 586 953 62 65 88 68 140
15z m566 -150 c43 -17 78 -66 78 -110 0 -35 -82 -206 -146 -306 -110 -170
-436 -582 -788 -996 -333 -391 -422 -499 -669 -806 -309 -385 -443 -548 -587
-715 -64 -74 -161 -189 -214 -255 -118 -145 -123 -149 -101 -105 31 60 243
417 363 610 295 473 549 851 1177 1750 221 316 461 662 535 768 l133 194 91
-7 c50 -4 108 -14 128 -22z m-1862 -113 c0 -5 -7 -10 -15 -10 -8 0 -15 5 -15
10 0 6 7 10 15 10 8 0 15 -4 15 -10z m3583 -1079 c43 -10 80 -20 82 -22 2 -2
-2 -23 -8 -47 l-11 -42 -111 -2 c-65 -1 -84 -3 -45 -5 131 -6 148 -11 155 -44
4 -17 5 -33 2 -35 -3 -3 -81 -23 -173 -44 -421 -96 -866 -239 -1371 -439 -29
-11 -53 -19 -53 -17 0 2 69 44 153 94 386 228 572 318 827 404 135 45 86 41
-82 -8 -228 -65 -591 -225 -880 -387 -54 -30 -98 -51 -98 -47 0 27 210 191
425 332 264 174 557 294 796 328 94 13 301 3 392 -19z m162 -319 c52 -49 117
-97 200 -147 12 -7 -61 -10 -237 -10 -144 -1 -296 -6 -353 -13 -434 -56 -817
-157 -1482 -391 -79 -27 -143 -46 -143 -42 0 21 55 49 256 132 411 170 799
307 1144 404 190 54 482 123 524 124 21 1 44 -13 91 -57z m170 -221 c70 -7 70
-7 25 -13 -25 -4 -104 -12 -176 -18 -416 -34 -900 -133 -1732 -355 -197 -52
-362 -95 -367 -95 -15 1 83 38 330 123 654 227 1054 324 1490 360 72 6 359 5
430 -2z m235 -108 c7 -21 21 -53 32 -72 10 -18 18 -34 16 -36 -2 -1 -68 -38
-148 -82 l-145 -80 -280 -6 c-386 -9 -569 -28 -1305 -137 -409 -62 -809 -114
-816 -107 -2 2 7 14 21 27 43 40 1095 318 1555 410 368 74 701 116 947 119
l111 1 12 -37z m148 -152 c62 -32 122 -111 122 -161 0 -24 5 -24 -95 -6 -44 8
-140 20 -213 27 -72 7 -129 16 -124 21 17 17 238 136 255 137 10 1 34 -8 55
-18z m-524 -179 c3 -5 -23 -25 -58 -44 -57 -32 -72 -35 -172 -41 -141 -9 -511
-68 -667 -107 -67 -17 -225 -58 -352 -92 l-230 -61 -315 6 c-282 5 -460 16
-558 33 -32 5 -33 6 -17 24 9 10 37 21 63 24 26 3 124 15 217 26 94 12 375 52
625 90 652 99 881 126 1168 139 246 12 290 12 296 3z m286 -12 c157 -16 252
-32 243 -40 -18 -18 -159 -32 -363 -37 -237 -6 -237 -6 -133 53 66 37 97 40
253 24z m264 -121 c-16 -17 -47 -44 -69 -59 -29 -20 -56 -56 -94 -125 l-55
-97 -40 6 c-209 30 -395 50 -576 59 l-215 12 165 93 165 93 280 4 c267 3 337
10 464 44 3 0 -8 -13 -25 -30z m-814 -23 c-8 -7 -80 -51 -160 -97 l-145 -84
-330 -3 c-181 -1 -327 -1 -325 1 3 3 95 27 205 55 260 66 511 113 760 141 5 1
3 -5 -5 -13z m-1987 -226 c60 -5 184 -13 275 -17 189 -8 179 -18 -28 -29 -179
-10 -417 21 -428 55 -3 10 4 12 34 7 22 -3 88 -10 147 -16z m-619 -58 c111
-94 203 -211 399 -507 69 -104 157 -229 196 -276 l70 -87 -1507 -913 c-829
-502 -1590 -966 -1692 -1030 -102 -65 -186 -116 -188 -114 -6 6 795 1409 883
1545 53 84 282 399 382 528 43 55 199 222 347 372 l268 273 94 38 c52 21 141
54 197 73 107 37 463 143 484 145 6 1 37 -20 67 -47z m2173 34 c-10 -8 -44
-17 -75 -20 -229 -26 -322 -46 -742 -154 -297 -76 -392 -92 -553 -92 -149 0
-252 15 -277 40 -18 18 -77 157 -69 164 2 2 40 -3 84 -11 179 -33 464 -15 710
45 103 25 129 27 425 32 173 3 360 7 415 8 86 1 98 -1 82 -12z m303 0 c14 -2
-31 -4 -100 -4 -69 -1 -120 2 -113 6 10 6 155 5 213 -2z m-2156 -32 c10 -25 1
-27 -19 -4 -15 17 -16 20 -3 20 9 0 19 -7 22 -16z m2732 -41 l112 -6 -24 -45
c-39 -72 -43 -74 -179 -52 -358 59 -755 49 -1040 -26 -11 -3 27 23 85 57 97
58 111 64 180 70 102 8 729 10 866 2z m2378 -39 c0 -16 -1 -66 -2 -111 l-2
-83 -35 0 c-37 0 -92 -24 -160 -70 -22 -14 -129 -72 -238 -128 -508 -262 -605
-342 -1219 -1007 -403 -437 -776 -800 -933 -908 l-30 -20 26 29 c206 231 364
427 559 692 317 431 530 714 605 802 184 220 451 469 627 588 140 94 354 187
503 218 67 14 265 34 290 29 6 -1 10 -15 9 -31z m-3439 8 c-28 -25 -258 -152
-310 -171 -33 -13 -65 -26 -70 -31 -32 -27 -558 -53 -656 -33 -28 5 -15 10 78
25 62 10 204 44 315 74 418 113 678 168 643 136z m890 -123 c88 -12 161 -22
163 -24 7 -6 -27 -61 -51 -83 -25 -24 -27 -24 -129 -13 -57 5 -146 13 -198 17
-52 3 -169 17 -260 30 -91 14 -234 27 -318 31 -84 3 -151 7 -149 9 8 8 245 45
342 53 150 13 407 4 600 -20z m-547 -116 l32 -8 -61 -24 c-60 -23 -66 -23
-169 -12 -122 13 -192 31 -198 50 -4 11 27 13 179 8 101 -3 199 -10 217 -14z
m-1635 -29 c184 -47 421 -64 627 -45 69 7 136 15 150 17 31 7 -53 -49 -120
-80 -41 -19 -64 -20 -265 -20 -214 0 -398 18 -414 41 -3 5 -21 30 -38 55 -37
52 -40 63 -18 54 9 -3 44 -13 78 -22z m1168 -6 c20 -49 117 -141 182 -172 31
-16 57 -30 57 -31 0 -2 -18 -33 -40 -69 -139 -229 -478 -878 -640 -1226 -35
-74 -81 -173 -103 -220 -22 -47 -118 -253 -214 -459 -240 -515 -276 -584 -307
-599 l-25 -11 21 52 c51 128 197 648 298 1067 229 946 369 1376 506 1557 50
65 82 90 153 119 77 32 96 31 112 -8z m3558 8 c19 -22 -10 -68 -71 -115 -29
-22 -88 -66 -130 -98 -458 -347 -725 -558 -958 -758 -233 -201 -468 -418 -561
-518 -119 -129 -319 -281 -704 -537 -121 -81 -240 -159 -265 -174 -50 -29 -58
-36 114 98 267 209 529 464 976 951 157 171 330 357 385 414 204 211 414 357
820 571 66 35 138 75 159 88 64 40 179 92 202 92 12 0 27 -6 33 -14z m197
-110 c38 -3 119 -8 179 -11 442 -23 826 -63 908 -94 l27 -11 -31 -51 c-20 -32
-34 -46 -39 -39 -11 19 -398 -187 -1310 -695 -1036 -578 -1622 -870 -2181
-1086 -205 -79 -380 -141 -386 -136 -1 2 97 70 219 152 398 264 537 374 778
610 364 358 861 772 1299 1083 185 132 302 229 346 288 l30 41 46 -23 c27 -14
72 -25 115 -28z m-4106 39 c0 -2 -10 -9 -22 -15 -22 -11 -22 -10 -4 4 21 17
26 19 26 11z m659 -22 c3 -2 -2 -11 -11 -19 -15 -15 -21 -14 -69 9 l-54 26 65
-6 c36 -3 67 -7 69 -10z m441 -79 c117 -56 160 -59 302 -23 66 17 126 29 134
27 9 -2 -32 -43 -102 -103 -148 -125 -375 -351 -522 -519 -219 -250 -383 -461
-807 -1036 -132 -179 -294 -395 -359 -480 -125 -162 -344 -430 -352 -430 -6 0
-3 7 249 550 460 993 631 1338 893 1801 l94 166 53 6 c28 3 97 21 152 40 133
46 171 46 265 1z m-1172 -3 c-1 -5 -25 -48 -53 -95 l-50 -87 -109 7 c-175 10
-174 9 -44 88 73 45 133 74 168 82 69 15 93 16 88 5z m1706 -23 c-10 -57 -79
-190 -164 -319 -104 -157 -180 -258 -400 -539 -97 -124 -277 -355 -400 -515
-123 -159 -293 -377 -378 -483 -85 -106 -171 -216 -192 -243 -50 -67 -199
-229 -210 -229 -13 0 -219 -81 -302 -119 -38 -16 -68 -28 -68 -26 0 3 51 69
113 148 112 140 299 389 512 682 550 756 844 1110 1182 1421 126 116 292 254
305 254 4 0 5 -15 2 -32z m-2354 11 c36 -6 141 -14 233 -18 l168 -6 -97 -59
-96 -59 -97 12 c-53 7 -103 14 -112 17 -14 4 -89 104 -89 119 0 7 17 6 90 -6z
m91 -212 c-11 -11 -41 -3 -41 11 0 5 12 7 26 4 17 -3 22 -8 15 -15z m5685 -98
c-19 -58 -39 -132 -46 -165 -18 -87 -39 -121 -129 -209 -105 -103 -228 -190
-371 -264 -146 -75 -192 -94 -486 -201 -132 -49 -359 -136 -505 -193 -332
-132 -797 -309 -1219 -464 -244 -89 -638 -223 -895 -304 -33 -10 -89 -23 -125
-29 -36 -5 -92 -16 -125 -24 -33 -8 -61 -13 -63 -12 -1 2 59 24 135 50 302
102 612 225 945 375 143 64 789 382 813 400 6 5 60 34 120 66 157 82 367 198
790 435 692 387 1184 654 1192 647 1 -2 -13 -50 -31 -108z m-5439 86 c92 -9
168 -17 170 -19 2 -2 -1 -15 -6 -28 -12 -32 -41 -38 -151 -32 -81 4 -172 24
-214 46 -18 10 -18 11 5 29 13 10 25 19 26 19 2 0 78 -7 170 -15z m1 -143 c67
-2 122 -6 122 -7 0 -2 -14 -40 -31 -85 -28 -72 -33 -79 -48 -68 -58 45 -169
139 -186 159 l-20 22 20 -8 c11 -4 75 -10 143 -13z m-368 -70 c37 -31 96 -71
131 -89 64 -31 189 -63 250 -63 24 0 30 -3 25 -16 -25 -64 -104 -335 -132
-452 -19 -79 -78 -358 -130 -620 -98 -493 -162 -769 -211 -906 -22 -64 -34
-83 -58 -96 -329 -178 -515 -275 -575 -300 -113 -47 -335 -116 -451 -141 -96
-20 -116 -21 -264 -13 -333 19 -1189 10 -1515 -16 -379 -30 -816 -102 -1064
-177 -18 -5 -18 -4 1 28 12 19 110 194 218 389 108 195 207 371 220 391 17 26
80 71 236 170 248 156 3230 1967 3242 1968 5 1 39 -25 77 -57z m5822 -273 c27
-127 24 -139 -53 -172 -34 -15 -63 -34 -66 -44 -2 -10 -36 -38 -74 -62 -39
-24 -93 -61 -121 -82 -83 -62 -702 -321 -1068 -447 -658 -226 -1122 -358
-1639 -467 -118 -25 -217 -45 -220 -45 -3 1 134 52 304 114 171 62 389 143
485 179 96 35 294 108 440 162 146 53 396 147 555 210 160 62 347 134 416 159
322 116 587 240 710 331 78 58 206 180 268 254 29 36 37 41 39 25 1 -10 12
-62 24 -115z m-568 -586 c-84 -100 -168 -232 -236 -371 l-60 -124 -76 -49
c-164 -107 -380 -196 -581 -239 -269 -59 -946 -84 -1406 -51 -104 7 -237 16
-295 19 l-105 7 155 33 c233 50 809 194 1026 256 396 115 940 306 1419 500
116 47 211 85 213 86 2 0 -23 -30 -54 -67z m-9374 -1789 c-158 -289 -184 -331
-215 -346 -44 -23 -67 -67 -67 -130 1 -38 -8 -67 -35 -122 -20 -39 -37 -73
-39 -75 -7 -8 -113 42 -146 69 -21 18 -56 68 -89 131 -35 67 -63 108 -81 118
-28 17 -43 51 -33 79 3 10 51 49 107 87 210 145 773 523 776 521 1 -2 -79
-151 -178 -332z m-1525 59 c8 -57 38 -130 66 -159 19 -21 19 -21 -27 -205 -43
-173 -169 -573 -197 -624 -6 -13 -104 -97 -217 -188 -113 -90 -270 -219 -348
-286 -79 -68 -146 -120 -148 -118 -8 7 72 304 117 437 123 366 330 717 624
1059 44 51 87 101 95 111 22 28 27 25 35 -27z m590 -132 c3 -6 -28 -61 -70
-124 -41 -63 -119 -185 -173 -273 l-98 -159 -159 -122 c-87 -68 -160 -122
-161 -120 -2 1 22 81 53 177 30 96 76 260 102 363 l48 188 64 3 c39 2 107 17
174 39 108 35 207 48 220 28z m85 -110 c5 -30 10 -71 10 -92 0 -37 -1 -39
-175 -166 -97 -70 -185 -135 -197 -143 -28 -19 -34 -30 106 180 108 163 222
298 238 282 4 -4 12 -32 18 -61z m20 -237 c0 -46 46 -163 81 -207 l30 -37 -20
-79 c-31 -125 -57 -182 -380 -831 -391 -785 -494 -1000 -633 -1325 -210 -491
-343 -873 -469 -1355 -36 -136 -47 -169 -43 -125 16 173 195 1270 260 1595
122 607 314 1203 598 1852 108 247 85 221 376 433 127 92 187 130 192 122 4
-7 8 -26 8 -43z m-610 -516 c-297 -579 -447 -1028 -599 -1786 -146 -727 -278
-1571 -328 -2092 l-8 -85 -5 75 c-8 103 -2 606 11 885 25 568 86 1019 199
1459 87 341 142 507 305 921 56 143 133 339 169 435 l67 175 147 112 c81 62
148 113 149 113 1 0 -47 -96 -107 -212z m976 117 c47 -18 98 -45 115 -59 19
-16 43 -26 62 -26 40 0 141 -58 250 -144 84 -65 277 -257 277 -275 0 -5 -30
-31 -67 -58 -564 -397 -1085 -921 -1467 -1477 -194 -281 -335 -523 -515 -885
-215 -428 -305 -657 -437 -1111 -84 -287 -87 -270 -18 80 117 586 294 1173
539 1780 176 436 298 702 557 1210 345 676 463 916 507 1033 l10 27 52 -30
c28 -17 89 -46 135 -65z m-1332 -417 c-141 -370 -175 -461 -240 -653 -205
-601 -311 -1069 -358 -1590 -29 -309 -36 -581 -37 -1345 0 -420 -4 -746 -9
-735 -4 11 -16 256 -25 545 -9 289 -26 746 -37 1015 -44 1017 -23 1760 63
2263 10 63 19 118 19 123 0 11 33 42 200 183 218 185 493 406 498 402 2 -3
-31 -96 -74 -208z m26787 7 c47 -4 92 -10 100 -15 12 -8 15 -119 18 -752 5
-1072 -19 -1874 -89 -2978 -24 -375 -77 -1079 -86 -1133 l-6 -39 -45 7 c-82
12 -249 64 -359 111 -462 197 -827 562 -1079 1079 -168 343 -259 661 -301
1045 -22 210 -15 625 14 815 71 453 201 808 410 1121 252 377 588 621 982 716
94 22 240 38 310 32 25 -2 84 -6 131 -9z m-24662 -254 c32 -83 65 -219 76
-311 8 -70 -30 -224 -80 -327 -72 -145 -169 -201 -459 -263 -276 -59 -567
-174 -789 -311 -43 -27 -77 -45 -75 -40 10 29 283 335 522 585 171 180 754
746 767 746 4 0 21 -36 38 -79z m-550 -314 c-298 -285 -686 -715 -939 -1040
-47 -61 -93 -115 -102 -121 -41 -25 -24 11 56 123 245 340 548 674 892 979
173 154 231 191 93 59z m1922 -683 c3 -2 9 -34 12 -73 7 -74 41 -193 63 -226
8 -11 14 -22 14 -26 0 -3 -39 -21 -87 -39 -125 -47 -350 -158 -473 -232 -303
-182 -588 -411 -1130 -908 l-93 -85 76 107 c42 59 115 167 163 240 205 315
339 510 421 613 218 273 509 509 712 577 153 50 287 72 322 52z m216 -428 c32
-8 130 -22 218 -31 383 -38 524 -81 625 -190 25 -28 29 -36 15 -31 -11 5 -62
19 -114 32 -247 63 -488 34 -750 -92 -125 -60 -194 -106 -351 -235 -232 -190
-454 -309 -870 -467 -124 -46 -288 -111 -365 -143 -76 -32 -140 -57 -142 -55
-2 1 120 84 269 183 192 127 356 247 553 404 300 238 485 381 605 469 78 57
242 170 246 170 1 0 29 -6 61 -14z m-357 -90 c0 -2 -44 -36 -97 -77 -103 -76
-296 -227 -473 -368 -264 -210 -661 -497 -850 -614 l-45 -28 36 33 c588 540
944 812 1306 1000 110 56 123 62 123 54z m1008 -191 c96 -17 201 -45 207 -55
3 -4 -82 -44 -188 -88 -414 -173 -728 -290 -1492 -554 -143 -49 -305 -105
-359 -124 -54 -19 -101 -33 -103 -31 -2 2 52 28 119 57 206 90 477 218 593
281 61 32 197 124 303 202 208 155 310 220 412 262 147 61 341 80 508 50z
m317 -137 c3 -13 9 -91 12 -175 l6 -152 -83 42 c-82 42 -82 42 -194 42 -136 0
-150 -5 -476 -158 -385 -180 -443 -203 -689 -277 -269 -80 -593 -154 -961
-219 -253 -45 -242 -44 -195 -25 22 9 292 101 600 206 679 230 704 239 930
321 346 125 760 291 965 386 36 17 68 30 71 31 4 0 10 -10 14 -22z m1905 -103
c240 -83 587 -214 930 -350 190 -75 408 -162 485 -192 77 -31 235 -101 350
-156 116 -55 248 -117 295 -138 l85 -38 9 -55 c5 -31 7 -59 3 -62 -3 -4 -34 9
-69 29 -141 78 -313 138 -613 213 -252 64 -423 117 -573 180 -245 103 -611
310 -929 527 -127 85 -154 107 -115 92 9 -3 73 -26 142 -50z m-77 -93 c438
-291 703 -441 987 -557 125 -51 194 -73 535 -164 143 -38 307 -86 365 -106
116 -41 320 -137 344 -163 8 -10 18 -41 22 -70 l7 -52 -30 0 c-51 0 -215 31
-288 55 -38 13 -144 55 -235 93 -91 39 -264 105 -385 146 -381 132 -446 157
-630 250 -280 142 -509 304 -723 511 -93 89 -156 165 -138 165 3 0 79 -49 169
-108z m-1940 -158 c26 -9 47 -19 47 -23 0 -3 -82 -34 -182 -68 -101 -33 -356
-122 -566 -197 -599 -212 -854 -287 -1174 -345 -140 -25 -195 -30 -388 -34
-156 -3 -208 -1 -170 5 890 148 1225 244 1821 521 114 53 231 106 260 118 125
49 252 58 352 23z m113 -126 c-3 -13 -9 -57 -12 -98 -5 -62 -3 -84 15 -130 12
-30 21 -58 21 -61 0 -3 -26 3 -57 15 -48 17 -81 21 -188 20 -154 0 -229 -16
-540 -117 -209 -68 -369 -108 -529 -132 -109 -16 -385 -40 -391 -33 -3 2 66
24 153 48 208 58 408 123 807 265 393 140 695 243 714 244 9 1 11 -6 7 -21z
m1864 -23 c0 -5 -5 -3 -10 5 -5 8 -10 20 -10 25 0 6 5 3 10 -5 5 -8 10 -19 10
-25z m270 -117 c249 -171 506 -297 840 -413 74 -26 235 -87 356 -135 383 -154
512 -191 701 -206 l92 -7 27 -38 c38 -55 110 -120 171 -154 46 -26 56 -37 87
-105 49 -108 60 -147 59 -221 0 -80 -24 -137 -82 -193 -39 -38 -41 -39 -73
-25 -18 7 -71 38 -118 67 -102 64 -473 248 -740 367 -206 91 -342 165 -510
278 -309 207 -590 454 -852 747 -146 163 -175 205 -102 144 27 -23 92 -70 144
-106z m-64 -118 c131 -149 370 -382 504 -491 300 -246 510 -370 1045 -617 165
-76 384 -182 488 -236 l187 -97 -20 -26 c-11 -14 -22 -40 -26 -58 -6 -32 -7
-32 -38 -23 -29 9 -43 5 -117 -30 -51 -24 -113 -44 -154 -51 l-70 -11 -85 41
c-222 106 -675 417 -958 657 -250 212 -446 424 -702 762 -161 213 -220 305
-220 344 l1 31 32 -40 c18 -22 78 -92 133 -155z m-81 -190 c155 -360 284 -614
401 -792 128 -193 252 -332 598 -670 132 -128 275 -273 317 -322 87 -100 88
-104 14 -137 -76 -35 -163 -26 -409 41 -121 33 -234 60 -251 60 -28 0 -35 8
-97 113 -333 564 -523 1054 -607 1567 -24 145 -40 294 -31 283 4 -5 33 -69 65
-143z m-2050 116 c97 -29 131 -61 200 -181 43 -74 60 -112 52 -116 -24 -13
-455 -79 -712 -108 -335 -39 -456 -46 -860 -46 -315 0 -434 4 -559 18 -87 10
-163 20 -168 23 -4 3 -15 20 -24 37 -9 18 -28 41 -42 53 l-25 21 344 6 c359 7
520 16 703 43 126 18 216 45 416 124 176 70 305 114 397 134 80 18 203 14 278
-8z m2226 -266 c437 -554 909 -956 1464 -1246 77 -41 131 -74 120 -74 -42 0
-129 -52 -186 -110 -43 -44 -71 -85 -101 -150 -24 -50 -45 -90 -48 -89 -3 0
-32 34 -65 75 -33 41 -170 184 -305 317 -410 404 -533 548 -680 797 -61 103
-272 523 -294 585 -9 26 -5 21 95 -105z m-4784 44 c-3 -3 -12 -4 -19 -1 -8 3
-5 6 6 6 11 1 17 -2 13 -5z m-152 -24 c-3 -5 -16 -10 -28 -10 -18 0 -19 2 -7
10 20 13 43 13 35 0z m-2388 -82 c-3 -8 -6 -5 -6 6 -1 11 2 17 5 13 3 -3 4
-12 1 -19z m5451 -100 c63 -93 170 -313 158 -325 -2 -2 -66 7 -142 21 -284 52
-610 97 -1219 171 -71 9 -131 18 -134 20 -2 3 29 5 70 5 179 0 672 56 1004
114 105 18 200 34 212 35 16 1 31 -12 51 -41z m1761 -448 c98 -287 248 -612
426 -922 l95 -167 -23 -35 -24 -35 -114 202 c-231 411 -386 746 -414 894 -14
75 -48 320 -60 433 -3 36 8 3 33 -95 22 -83 58 -206 81 -275z m-3369 275 c201
-25 383 -48 405 -50 364 -43 1020 -134 1260 -176 l128 -23 -6 -110 c-8 -169
-84 -483 -146 -603 -27 -55 -76 -110 -114 -129 -47 -25 -163 -29 -232 -9 -161
46 -231 99 -650 496 -261 247 -353 326 -477 409 -115 77 -179 107 -383 175
-165 55 -230 81 -175 70 14 -3 189 -25 390 -50z m3733 -1365 c93 -160 107
-191 107 -230 0 -100 -56 -118 -130 -42 -98 101 -172 293 -255 657 -26 110
-48 209 -51 220 -3 11 46 -79 109 -200 63 -121 162 -303 220 -405z m-7736 393
c-2 -16 -4 -3 -4 27 0 30 2 43 4 28 2 -16 2 -40 0 -55z m7187 -1503 c42 -11
115 -37 162 -59 96 -45 175 -117 258 -234 l49 -68 -51 -103 c-28 -57 -59 -133
-68 -170 -10 -41 -21 -65 -28 -62 -121 53 -185 74 -329 111 -297 75 -373 82
-972 90 -382 5 -554 17 -785 56 -117 19 -348 74 -359 84 -2 3 9 5 25 6 229 5
628 88 1319 274 395 106 587 124 779 75z m-2226 -630 c337 -408 483 -565 658
-711 270 -224 545 -347 874 -389 107 -14 295 -8 510 16 197 22 506 29 615 15
98 -13 224 -43 285 -67 l39 -16 -2 -86 c-2 -108 -1 -112 117 -365 20 -43 36
-80 36 -82 0 -2 -26 8 -57 22 -106 46 -194 63 -337 63 -146 0 -213 -12 -373
-64 -60 -19 -140 -40 -178 -46 -39 -7 -124 -25 -190 -41 -212 -51 -280 -39
-558 103 -655 334 -1163 890 -1599 1748 -129 254 -134 257 160 -100z m17 201
c79 -30 270 -78 395 -101 254 -44 360 -52 895 -60 555 -9 638 -15 832 -66 168
-43 381 -145 447 -213 85 -88 126 -129 152 -151 l29 -25 -160 -8 c-244 -12
-945 -2 -1102 17 -297 35 -527 85 -757 167 -133 47 -373 163 -486 235 -79 50
-300 212 -300 220 0 6 0 6 55 -15z m290 -328 c127 -77 193 -110 330 -166 427
-175 880 -238 1580 -222 160 3 310 8 335 10 25 2 100 7 168 10 91 5 125 11
129 21 6 17 34 -1 143 -94 93 -78 130 -131 130 -184 0 -66 -31 -171 -59 -199
-14 -14 -37 -48 -50 -75 -13 -27 -25 -50 -27 -52 -1 -2 -33 6 -71 18 -143 44
-279 60 -516 59 -122 0 -298 -4 -392 -8 -286 -15 -570 13 -775 74 -316 94
-631 340 -1020 795 -156 182 -154 180 -75 123 39 -28 115 -77 170 -110z m-198
-368 c321 -491 693 -874 1128 -1160 252 -165 336 -195 549 -195 167 0 225 10
410 69 413 133 674 138 915 16 l65 -32 -189 -6 c-189 -5 -226 -10 -520 -67
-322 -62 -347 -65 -580 -65 -201 1 -229 3 -331 27 -137 32 -219 64 -351 135
-260 141 -539 405 -810 767 -96 127 -261 373 -307 457 -35 63 -166 346 -166
357 0 4 23 -34 51 -83 29 -50 90 -148 136 -220z m398 -765 c132 -165 334 -367
469 -467 60 -45 161 -108 225 -141 200 -102 343 -139 586 -148 176 -7 305 8
690 80 160 30 340 60 402 67 108 11 326 10 337 -2 14 -14 29 -133 30 -244 1
-100 -2 -126 -18 -158 -11 -22 -24 -41 -30 -43 -7 -3 -47 16 -91 41 -154 87
-313 142 -500 171 -73 12 -200 17 -475 20 -206 3 -420 9 -474 15 -432 46 -839
333 -1203 849 -33 47 -68 99 -77 115 l-18 30 23 -30 c13 -16 69 -86 124 -155z
m87 -250 c246 -304 552 -521 835 -594 159 -41 249 -48 728 -56 491 -8 525 -11
681 -60 76 -23 238 -98 269 -124 19 -16 15 -17 -80 -12 -55 4 -147 18 -205 32
-143 34 -308 42 -419 20 -78 -16 -97 -16 -285 -1 -570 46 -910 166 -1261 444
-178 141 -221 194 -335 406 -49 92 -44 88 72 -55z m513 -602 c179 -101 370
-167 615 -213 102 -19 327 -45 393 -45 26 0 47 -4 47 -8 0 -21 -169 -80 -275
-96 l-110 -16 -94 25 c-122 33 -261 92 -364 154 -85 52 -273 198 -317 247
l-25 27 35 -20 c19 -12 62 -37 95 -55z m22 -144 c147 -116 338 -216 492 -260
l61 -17 -25 -25 c-14 -14 -34 -40 -46 -58 -23 -38 -41 -41 -111 -20 -57 17
-202 112 -278 183 -51 47 -205 234 -292 353 -31 42 -28 41 42 -24 41 -38 112
-97 157 -132z"/>
<path d="M16631 22630 c-732 -58 -1457 -316 -2030 -724 -253 -180 -558 -467
-747 -703 -103 -129 -270 -379 -347 -520 -403 -733 -529 -1590 -361 -2458 200
-1036 728 -1837 1627 -2468 440 -309 977 -531 1492 -617 375 -62 787 -66 1194
-9 964 134 1709 587 2279 1385 121 170 279 445 388 675 l22 46 -38 22 -37 21
-36 -73 c-112 -224 -278 -487 -438 -692 -107 -137 -374 -409 -499 -509 -177
-141 -406 -281 -588 -362 -344 -151 -675 -219 -1118 -231 -543 -14 -999 76
-1465 290 -340 156 -708 433 -980 737 -514 573 -869 1389 -979 2245 -37 288
-35 527 6 840 142 1085 664 1927 1511 2433 510 305 1197 492 1723 468 747 -33
1434 -358 2066 -979 l121 -118 26 32 c25 33 25 33 7 59 -34 47 -306 306 -436
414 -539 448 -1106 702 -1744 781 -156 19 -468 27 -619 15z"/>
<path d="M20950 18865 l0 -3705 398 2 397 3 6 1020 c6 1059 7 1103 54 1520
126 1118 429 1934 850 2288 195 164 401 233 665 224 187 -6 306 -46 456 -153
297 -210 522 -696 598 -1292 25 -191 36 -695 47 -2157 5 -742 12 -1371 16
-1398 l5 -47 395 2 394 3 -1 1005 c-1 1759 -26 2324 -120 2750 -136 619 -448
1074 -890 1299 -312 159 -676 205 -1040 131 -257 -52 -496 -183 -685 -374
-360 -363 -585 -939 -715 -1827 l-28 -194 -4 2300 -3 2300 -397 3 -398 2 0
-3705z"/>
<path d="M26309 21646 c-115 -32 -221 -121 -276 -234 -26 -52 -28 -66 -28
-172 0 -108 2 -119 31 -181 123 -259 462 -324 669 -128 99 94 141 199 132 333
-17 266 -274 452 -528 382z"/>
<path d="M26022 17748 l3 -2573 393 -3 392 -2 0 2575 0 2575 -395 0 -395 0 2
-2572z"/>
<path d="M11760 10920 l0 -3560 385 0 385 0 2 2113 3 2112 1688 3 1687 2 0
-2115 0 -2115 385 0 385 0 0 3560 0 3560 -385 0 -385 0 0 -1405 0 -1405 -1687
2 -1688 3 -3 1403 -2 1402 -385 0 -385 0 0 -3560z"/>
<path d="M19865 12450 c-648 -45 -1282 -336 -1742 -801 -134 -136 -198 -215
-303 -372 -209 -313 -336 -661 -385 -1048 -20 -161 -20 -474 0 -639 118 -954
760 -1727 1719 -2072 931 -334 1974 -118 2727 566 349 316 606 749 719 1208
27 110 52 255 65 378 12 109 6 428 -10 556 -104 852 -626 1564 -1430 1953
-432 209 -899 302 -1360 271z m460 -109 c287 -64 528 -198 759 -420 192 -186
324 -365 451 -616 347 -680 417 -1547 189 -2320 -97 -327 -261 -646 -457 -891
-128 -158 -347 -351 -500 -439 -44 -25 -39 -19 56 76 204 204 349 483 413 795
36 181 38 414 3 634 -20 130 -135 563 -251 948 -85 284 -105 376 -120 557 -10
120 -9 156 5 254 15 103 15 117 2 138 -37 56 -115 10 -199 -116 -93 -139 -135
-286 -143 -496 -4 -112 -2 -153 11 -205 35 -135 101 -244 245 -404 44 -49 79
-91 77 -93 -2 -2 -58 23 -125 56 -145 70 -220 88 -305 72 -67 -12 -122 -43
-131 -73 -11 -32 8 -40 102 -49 102 -9 128 -16 203 -54 186 -94 444 -349 516
-512 53 -118 69 -395 34 -596 -35 -204 -130 -443 -249 -622 -58 -88 -206 -239
-290 -295 -256 -171 -574 -223 -956 -156 -210 37 -493 212 -715 442 -390 404
-624 946 -701 1624 -18 157 -15 537 5 705 81 661 334 1225 723 1607 164 162
305 263 476 343 141 66 272 103 452 129 75 11 333 -3 420 -23z"/>
<path d="M4885 8335 c46 -81 193 -312 263 -415 233 -338 476 -635 727 -885
338 -339 565 -507 965 -715 347 -181 859 -488 1355 -812 l60 -39 -45 42 c-207
193 -712 620 -1210 1024 -1194 968 -1542 1265 -2004 1715 -128 123 -137 131
-111 85z"/>
<path d="M18046 6700 c-3 -13 -29 -319 -30 -375 -2 -46 19 -25 39 40 52 168
107 220 255 239 25 3 81 2 125 -3 126 -15 115 45 115 -632 0 -390 -3 -586 -11
-602 -16 -36 -45 -48 -125 -54 -53 -4 -74 -10 -74 -19 0 -12 53 -14 290 -14
239 0 290 2 290 14 0 10 -20 15 -74 18 -89 6 -121 24 -135 75 -16 56 -14 1107
2 1153 7 21 23 40 40 48 36 18 218 20 274 4 88 -26 134 -90 155 -216 7 -42 18
-78 23 -79 6 -1 13 42 17 103 18 298 19 310 8 310 -6 0 -22 -12 -34 -27 l-24
-28 -305 -8 c-171 -5 -407 -5 -537 0 l-232 8 -24 30 c-17 21 -24 25 -28 15z"/>
<path d="M13845 6649 c-44 -11 -125 -41 -180 -68 -275 -134 -416 -393 -384
-703 30 -293 225 -529 499 -604 90 -25 289 -25 385 0 210 53 410 210 500 392
57 114 79 219 72 344 -10 191 -72 336 -202 465 -92 93 -182 145 -301 175 -104
27 -277 26 -389 -1z m240 -44 c206 -43 367 -192 440 -405 49 -143 57 -353 20
-495 -34 -133 -131 -273 -230 -330 -152 -90 -348 -95 -515 -14 -101 49 -206
162 -264 280 -70 147 -81 197 -81 394 0 182 6 214 63 335 31 67 118 155 190
193 100 54 245 70 377 42z"/>
<path d="M22262 6645 c-312 -81 -518 -304 -551 -596 -26 -230 46 -445 199
-599 119 -120 267 -185 447 -197 l92 -6 27 -38 c44 -63 174 -181 252 -228 147
-88 286 -117 440 -91 101 17 96 36 -10 36 -127 1 -238 49 -364 155 -56 47
-164 175 -164 194 0 6 24 19 53 28 84 27 201 102 276 177 221 221 272 534 134
820 -83 172 -243 303 -429 350 -112 29 -279 27 -402 -5z m322 -59 c149 -50
263 -153 335 -300 60 -125 75 -197 75 -366 0 -122 -3 -158 -23 -227 -43 -154
-141 -278 -266 -338 -114 -55 -214 -66 -340 -40 -109 23 -189 68 -276 155 -83
83 -141 184 -180 315 -29 97 -37 330 -15 433 43 206 189 358 376 391 91 16
226 6 314 -23z"/>
<path d="M11660 6649 c-47 -4 -154 -5 -237 -2 -132 5 -153 4 -153 -9 0 -11 16
-17 62 -22 69 -7 104 -25 118 -62 16 -40 13 -1153 -3 -1184 -17 -34 -72 -60
-129 -60 -33 0 -48 -4 -48 -13 0 -19 614 -32 692 -16 129 28 237 112 291 227
27 57 33 81 35 157 3 74 0 100 -19 150 -40 108 -155 199 -285 226 l-61 12 48
26 c62 34 134 103 161 155 30 59 36 171 13 233 -39 101 -128 163 -262 183 -75
11 -98 11 -223 -1z m226 -60 c85 -41 128 -127 126 -256 -2 -179 -103 -272
-304 -281 l-98 -4 0 243 c0 325 4 333 158 324 48 -2 88 -11 118 -26z m44 -620
c76 -35 121 -77 158 -147 81 -152 54 -365 -56 -449 -58 -44 -109 -57 -222 -57
-107 0 -165 20 -187 64 -9 18 -13 106 -13 324 l0 298 133 -4 c115 -3 139 -7
187 -29z"/>
<path d="M15690 6635 c0 -7 24 -15 62 -19 76 -8 104 -25 117 -73 7 -24 11
-196 11 -453 0 -341 3 -426 15 -475 62 -237 278 -378 559 -362 199 11 335 90
419 244 56 105 60 132 66 588 5 364 8 424 22 450 25 45 52 65 106 79 26 7 48
17 48 22 0 5 -86 9 -210 9 -212 0 -257 -8 -167 -31 54 -14 91 -41 117 -85 19
-33 20 -52 20 -449 0 -365 -2 -422 -17 -471 -47 -151 -147 -248 -286 -278
-211 -45 -404 40 -486 213 -55 115 -58 139 -63 547 -7 507 -8 503 126 524 131
20 70 30 -196 31 -198 1 -263 -2 -263 -11z"/>
<path d="M20184 6638 c-7 -11 9 -15 80 -23 68 -8 101 -34 111 -86 3 -19 5
-287 3 -596 l-3 -563 -26 -25 c-21 -21 -39 -28 -95 -33 -38 -4 -69 -11 -69
-17 0 -6 98 -11 268 -13 213 -2 268 0 265 10 -3 8 -29 15 -64 19 -71 7 -102
22 -114 55 -13 34 -13 1154 0 1188 14 37 49 55 118 62 38 4 62 12 62 19 0 14
-527 17 -536 3z"/>
<path d="M24110 6635 c0 -7 24 -15 60 -18 34 -4 70 -11 80 -17 44 -23 45 -34
50 -515 5 -441 6 -462 27 -513 49 -120 128 -209 233 -261 92 -46 144 -56 285
-55 107 1 141 5 189 22 157 58 252 163 304 335 12 42 16 137 21 472 5 364 8
424 22 450 25 45 52 65 106 79 26 7 48 17 48 22 0 12 -418 12 -425 0 -3 -5 19
-15 48 -21 56 -13 93 -41 120 -90 15 -26 17 -79 20 -404 3 -395 -2 -470 -41
-567 -27 -70 -105 -157 -166 -188 -56 -29 -134 -46 -206 -46 -176 0 -317 86
-385 235 -52 112 -55 148 -55 575 0 217 3 407 8 422 9 35 36 50 115 63 126 21
71 30 -195 31 -198 1 -263 -2 -263 -11z"/>
<path d="M26440 6636 c0 -9 20 -15 63 -20 68 -7 108 -29 118 -67 4 -13 7 -277
8 -587 1 -634 2 -622 -66 -641 -21 -6 -57 -11 -80 -11 -32 0 -43 -4 -43 -15 0
-13 57 -15 478 -13 l477 3 7 129 c3 72 9 145 13 164 5 29 4 33 -11 30 -12 -2
-21 -17 -26 -42 -13 -63 -69 -156 -112 -188 -61 -44 -96 -50 -274 -46 l-164 3
-24 28 -24 28 0 291 0 290 168 -4 c142 -3 173 -6 207 -23 44 -22 70 -65 80
-128 9 -57 30 -41 30 21 -3 287 -5 332 -20 332 -10 0 -15 -10 -15 -34 0 -45
-40 -92 -88 -106 -20 -5 -110 -10 -199 -10 l-163 0 0 250 c0 259 4 285 43 310
30 19 253 26 322 11 91 -21 158 -97 172 -196 3 -28 11 -45 19 -45 11 0 14 28
14 134 0 74 -3 141 -6 150 -5 14 -55 16 -455 16 -372 0 -449 -2 -449 -14z"/>
<path d="M10903 26383 c9 -2 23 -2 30 0 6 3 -1 5 -18 5 -16 0 -22 -2 -12 -5z"/>
<path d="M10828 26373 c7 -3 16 -2 19 1 4 3 -2 6 -13 5 -11 0 -14 -3 -6 -6z"/>
<path d="M10768 26363 c7 -3 16 -2 19 1 4 3 -2 6 -13 5 -11 0 -14 -3 -6 -6z"/>
<path d="M10718 26353 c6 -2 18 -2 25 0 6 3 1 5 -13 5 -14 0 -19 -2 -12 -5z"/>
<path d="M33455 12444 c-238 -23 -426 -58 -601 -109 -467 -137 -869 -366
-1188 -675 -397 -385 -620 -831 -708 -1415 -18 -120 -18 -626 0 -750 68 -472
231 -867 492 -1195 95 -118 295 -312 419 -404 478 -355 1100 -543 1726 -523
208 7 336 25 523 72 620 159 1112 574 1506 1267 36 64 66 122 66 128 0 6 -14
17 -32 24 l-32 14 -59 -107 c-226 -409 -564 -777 -894 -975 -172 -103 -383
-182 -582 -218 -167 -30 -497 -30 -661 0 -557 102 -1010 428 -1327 957 -364
606 -486 1317 -362 2118 l21 137 1910 0 1910 0 -7 53 c-50 373 -199 710 -429
966 -290 323 -712 539 -1201 616 -96 15 -408 27 -490 19z m42 -99 c166 -11
400 -88 562 -184 419 -249 730 -719 809 -1223 l9 -58 -1544 0 -1545 0 7 33
c15 69 97 303 145 409 249 557 634 906 1105 1003 91 19 258 34 325 29 25 -2
82 -6 127 -9z"/>
</g>
</svg>
